<?xml version="1.0" encoding="UTF-8"?>
<svg version="1.1" xmlns="http://www.w3.org/2000/svg" width="375" height="288">
<path d="M0 0 C1.19923631 1.79885447 2.35982835 3.62578844 3.4375 5.5 C5.6531965 9.0451144 7.00136018 10.66712006 11 12 C12.64855867 12.09513338 14.3006861 12.13328372 15.95198059 12.13803101 C16.97396042 12.14348434 17.99594025 12.14893768 19.04888916 12.15455627 C20.16946716 12.1555986 21.29004517 12.15664093 22.44458008 12.15771484 C23.62531601 12.16279556 24.80605194 12.16787628 26.02256775 12.17311096 C29.26235826 12.18662464 32.50213532 12.19600654 35.74194169 12.20452833 C39.13444099 12.21525195 42.52689301 12.23383234 45.9193573 12.25234985 C57.47557775 12.3142409 69.03179333 12.36826657 80.58813477 12.40136719 C86.97065677 12.41972869 93.35303974 12.44868352 99.73545951 12.4893719 C103.11147928 12.51041607 106.48732404 12.52589546 109.86341286 12.52817917 C113.63156161 12.53308035 117.39919255 12.55621937 121.16723633 12.58349609 C122.28174164 12.58048996 123.39624695 12.57748383 124.54452515 12.5743866 C130.09240071 12.63411114 134.25677542 12.78286154 139 16 C144.35252157 21.47416979 146.26139526 26.42070629 146.23046875 34.01953125 C146.22853516 35.12361328 146.22660156 36.22769531 146.22460938 37.36523438 C146.21236328 38.50283203 146.20011719 39.64042969 146.1875 40.8125 C146.1865332 42.54790039 146.1865332 42.54790039 146.18554688 44.31835938 C146.14040824 52.85959176 146.14040824 52.85959176 145 54 C142.22521317 54.12312902 139.47145999 54.18611654 136.6953125 54.2109375 C134.98045921 54.23900645 133.26561558 54.26767091 131.55078125 54.296875 C128.83610302 54.33816288 126.12160511 54.37503293 123.40673828 54.40136719 C120.794213 54.42893249 118.18251905 54.47480541 115.5703125 54.5234375 C114.7577298 54.52669037 113.94514709 54.52994324 113.10794067 54.53329468 C108.90191435 54.50993652 108.90191435 54.50993652 105.28694153 56.37002563 C102.44836764 59.96521825 103.53445381 65.62479456 103.5625 70 C103.54251953 71.10601562 103.52253906 72.21203125 103.50195312 73.3515625 C103.50259766 74.41117187 103.50324219 75.47078125 103.50390625 76.5625 C103.50205322 77.53316406 103.5002002 78.50382812 103.49829102 79.50390625 C103.80619609 82.05795801 103.80619609 82.05795801 105.50292969 83.81005859 C109.08963281 85.51924817 112.5538634 85.46043225 116.44921875 85.4765625 C117.26244095 85.49214203 118.07566315 85.50772156 118.91352844 85.52377319 C121.50484302 85.57122376 124.09588854 85.59904303 126.6875 85.625 C129.28963506 85.66145723 131.89161642 85.7020119 134.49360657 85.74765015 C136.11166898 85.77493775 137.72984458 85.79626243 139.34806824 85.81118774 C144.88932268 85.88932268 144.88932268 85.88932268 146 87 C146.28345135 91.01341349 146.23193279 95.04028758 146.25 99.0625 C146.2809375 100.74375977 146.2809375 100.74375977 146.3125 102.45898438 C146.34986883 110.41387467 145.86042117 116.5373849 140.625 122.875 C135.85511049 126.73633913 131.93062579 127.25084971 125.86462402 127.26069641 C124.80382574 127.26643473 124.80382574 127.26643473 123.72159719 127.27228898 C121.35794175 127.2825868 118.99453069 127.27863304 116.63085938 127.2746582 C114.93382035 127.27900641 113.23678329 127.28418992 111.53974915 127.29014587 C106.93446235 127.30353407 102.32925762 127.30411484 97.72395515 127.30158257 C93.87936603 127.30051294 90.03479352 127.30539593 86.19020796 127.310188 C77.12142157 127.32128214 68.05267661 127.32172083 58.98388672 127.31567383 C49.62654594 127.30963044 40.26935538 127.32195453 30.91204023 127.3432439 C22.87794775 127.36085096 14.84390312 127.36686275 6.80979204 127.36360615 C2.01139268 127.36179204 -2.78689947 127.36444245 -7.58528137 127.37832069 C-12.0964266 127.39088019 -16.60733722 127.38897279 -21.11847878 127.37590981 C-22.77409252 127.37354053 -24.42972268 127.37629125 -26.08531761 127.38453293 C-28.34535971 127.39497253 -30.60461052 127.38692291 -32.86462402 127.3742218 C-34.76161167 127.37447341 -34.76161167 127.37447341 -36.6969223 127.37473011 C-40.2660666 126.96981507 -42.15479819 126.15299926 -45 124 C-46.56700442 120.86599115 -46.85164561 117.36844905 -46 114 C-43.18326262 111.02959728 -41.03391982 109.7507566 -37.00756836 109.51757812 C-35.45171801 109.50340821 -33.89560008 109.50903832 -32.33984375 109.53125 C-31.09951134 109.52067566 -31.09951134 109.52067566 -29.8341217 109.5098877 C-27.2015974 109.48789317 -24.57008915 109.49085154 -21.9375 109.5 C-18.46689839 109.5120364 -14.99781216 109.49837143 -11.52734375 109.46875 C-10.73247055 109.48006958 -9.93759735 109.49138916 -9.11863708 109.50305176 C-5.59309249 109.47080687 -3.40110412 109.27265397 -0.45141602 107.26757812 C1.29694246 104.53608047 1.30645374 103.40323785 0.75 100.25 C0.62109375 99.45078125 0.4921875 98.6515625 0.359375 97.828125 C0.24078125 97.22484375 0.1221875 96.6215625 0 96 C-0.91289795 95.98541748 -1.8257959 95.97083496 -2.76635742 95.95581055 C-6.16798611 95.89459205 -9.56882681 95.82041127 -12.9699707 95.73754883 C-14.43926422 95.70438741 -15.90868244 95.67632822 -17.37817383 95.65356445 C-19.49614368 95.61985481 -21.61297995 95.56753567 -23.73046875 95.51171875 C-25.00301514 95.48553467 -26.27556152 95.45935059 -27.58666992 95.43237305 C-31.21937029 94.97221195 -33.1349139 94.24845339 -36 92 C-37.5 88.625 -37.5 88.625 -38 85 C-36.67765243 82.02471797 -35.29087851 80.29087851 -33 78 C-31.19865417 77.75517273 -31.19865417 77.75517273 -28.99682617 77.76049805 C-28.17224411 77.75676682 -27.34766205 77.75303558 -26.49809265 77.74919128 C-25.60540176 77.75332535 -24.71271088 77.75745941 -23.79296875 77.76171875 C-21.90819594 77.74629667 -20.02343018 77.72999286 -18.13867188 77.71289062 C-15.16284682 77.69644146 -12.18753665 77.68749991 -9.21166992 77.69458008 C-6.34234193 77.6972009 -3.47458674 77.6690689 -0.60546875 77.63671875 C0.72445854 77.65202888 0.72445854 77.65202888 2.08125305 77.66764832 C6.53928101 77.59715853 8.43751942 77.42588512 12.09643555 74.65551758 C14.29261381 72.12104978 14.29261381 72.12104978 14.0625 68.875 C12.82653325 65.53061939 12.0443473 64.76265711 9 63 C6.0893495 62.56263661 6.0893495 62.56263661 2.84204102 62.64697266 C1.59717422 62.64331696 0.35230743 62.63966125 -0.93028259 62.63589478 C-1.92382405 62.64309477 -1.92382405 62.64309477 -2.93743706 62.65044022 C-5.01875284 62.66421244 -7.09911874 62.65772256 -9.18043518 62.64559937 C-15.09569603 62.61468234 -21.01073399 62.61950648 -26.92602539 62.63964844 C-30.5489221 62.65058107 -34.17110396 62.63734593 -37.79390144 62.60975266 C-39.17135233 62.60432151 -40.54887514 62.60835225 -41.92626762 62.62215042 C-54.06138361 62.74230797 -54.06138361 62.74230797 -57.34399414 59.64990234 C-59.40469872 56.35241045 -59.79494698 54.81574552 -59 51 C-57.23242188 48.34570312 -57.23242188 48.34570312 -54 46 C-49.88636145 45.28933688 -45.82066935 45.3984163 -41.65625 45.46875 C-40.45440063 45.46548706 -39.25255127 45.46222412 -38.01428223 45.4588623 C-32.87619879 45.44568559 -27.73898104 45.49053502 -22.60107422 45.52978516 C-18.84835993 45.55022426 -15.09648576 45.54143842 -11.34375 45.53125 C-9.60140076 45.56067688 -9.60140076 45.56067688 -7.82385254 45.59069824 C-1.35590714 45.61911108 -1.35590714 45.61911108 4.26757812 42.69726562 C6.32312575 40.01702467 6.32312575 40.01702467 6.0625 36.3125 C5.36309632 33.02947171 5.36309632 33.02947171 3.39819336 31.80566406 C0.11862002 30.7039037 -3.01618024 30.76062662 -6.43359375 30.796875 C-7.9017016 30.78632832 -9.36980116 30.77457223 -10.83789062 30.76171875 C-13.14013458 30.7514025 -15.4412165 30.75003227 -17.7434082 30.77001953 C-19.97446173 30.78481843 -22.20271978 30.76230506 -24.43359375 30.734375 C-25.11707382 30.74974304 -25.80055389 30.76511108 -26.50474548 30.78094482 C-29.26649608 30.72500911 -31.39520228 30.50233037 -33.55862427 28.70544434 C-35.55998594 26.38977522 -36.89635615 24.42493979 -37.625 21.4375 C-36.72663851 17.9338902 -34.66984417 16.34425342 -32 14 C-31.67 13.67 -31.34 13.34 -31 13 C-28.70848583 12.91209025 -26.41427476 12.89305962 -24.12109375 12.90234375 C-23.09110008 12.90446617 -23.09110008 12.90446617 -22.04029846 12.90663147 C-19.83932199 12.91224521 -17.63844591 12.92479993 -15.4375 12.9375 C-13.94856917 12.94251324 -12.45963676 12.94707645 -10.97070312 12.95117188 C-7.31376925 12.96221907 -3.65689442 12.97949287 0 13 C0 8.71 0 4.42 0 0 Z M59 43 C58.835 43.9075 58.67 44.815 58.5 45.75 C56.60237791 49.86151454 54.88041391 50.25600729 50.9140625 52.015625 C48.03644904 53.49554049 47.05686105 54.97033167 46 58 C46 62.37308436 46.50473367 64.38091708 49.25 67.8125 C52.15863998 70.34122561 52.15863998 70.34122561 57 72 C57.33 75.96 57.66 79.92 58 84 C53.47653527 81.73826764 52.94171334 80.46594067 51 76 C49.35 76 47.7 76 46 76 C45.10275315 77.64330947 45.10275315 77.64330947 45 80 C46.92084441 84.37952525 48.00768303 86.37220763 52.0625 88.9375 C54.94956315 90.17006804 54.94956315 90.17006804 58 90 C58.33 92.31 58.66 94.62 59 97 C60.32 96.34 61.64 95.68 63 95 C63 93.35 63 91.7 63 90 C63.86625 89.938125 64.7325 89.87625 65.625 89.8125 C70.00634099 88.75773272 71.75698868 87.09217359 75 84 C76.744159 80.51168199 76.56632107 76.80620442 76 73 C73.40816616 69.19324404 71.02773685 67.81303211 66.6875 66.6875 C64.8621875 66.3471875 64.8621875 66.3471875 63 66 C63.33 62.7 63.66 59.4 64 56 C65.11375 57.2065625 65.11375 57.2065625 66.25 58.4375 C69.2191011 61.25176869 69.2191011 61.25176869 73 62 C73.33 61.67 73.66 61.34 74 61 C74.0615942 57.58863524 74.0615942 57.58863524 73 54 C70.04494054 51.55886393 67.62473961 50.20824654 64 49 C62.8125 45.9375 62.8125 45.9375 62 43 C61.01 43 60.02 43 59 43 Z " fill="#6BBC0F" transform="translate(153,70)"/>
<path d="M0 0 C8.28702714 4.69763614 15.4293968 11.62091603 18.9375 20.5625 C21.69114718 31.46980378 20.13902253 41.76399055 14.8515625 51.578125 C13.8125 53.25 13.8125 53.25 11.9375 55.5625 C11.2775 55.5625 10.6175 55.5625 9.9375 55.5625 C9.6075 56.5525 9.2775 57.5425 8.9375 58.5625 C-0.66125391 65.78914806 -10.21503373 67.63954239 -22.0625 66.5625 C-30.3000336 64.40505072 -38.34821343 58.63392985 -43.0625 51.5625 C-43.0625 50.9025 -43.0625 50.2425 -43.0625 49.5625 C-43.7225 49.5625 -44.3825 49.5625 -45.0625 49.5625 C-47.63193008 43.58994178 -48.61282801 38.67327738 -48.5625 32.1875 C-48.55822998 31.35259033 -48.55395996 30.51768066 -48.54956055 29.6574707 C-48.36553924 22.98523517 -47.04461633 18.02274262 -43.0625 12.5625 C-42.32 11.49 -41.5775 10.4175 -40.8125 9.3125 C-30.29836615 -1.20163385 -14.32701241 -5.65336165 0 0 Z M-16.0625 5.5625 C-16.2275 6.47 -16.3925 7.3775 -16.5625 8.3125 C-18.46012209 12.42401454 -20.18208609 12.81850729 -24.1484375 14.578125 C-27.02605096 16.05804049 -28.00563895 17.53283167 -29.0625 20.5625 C-29.0625 24.93558436 -28.55776633 26.94341708 -25.8125 30.375 C-22.90386002 32.90372561 -22.90386002 32.90372561 -18.0625 34.5625 C-17.7325 38.5225 -17.4025 42.4825 -17.0625 46.5625 C-21.58596473 44.30076764 -22.12078666 43.02844067 -24.0625 38.5625 C-25.7125 38.5625 -27.3625 38.5625 -29.0625 38.5625 C-29.95974685 40.20580947 -29.95974685 40.20580947 -30.0625 42.5625 C-28.14165559 46.94202525 -27.05481697 48.93470763 -23 51.5 C-20.11293685 52.73256804 -20.11293685 52.73256804 -17.0625 52.5625 C-16.7325 54.8725 -16.4025 57.1825 -16.0625 59.5625 C-14.7425 58.9025 -13.4225 58.2425 -12.0625 57.5625 C-12.0625 55.9125 -12.0625 54.2625 -12.0625 52.5625 C-11.19625 52.500625 -10.33 52.43875 -9.4375 52.375 C-5.05615901 51.32023272 -3.30551132 49.65467359 -0.0625 46.5625 C1.681659 43.07418199 1.50382107 39.36870442 0.9375 35.5625 C-1.65433384 31.75574404 -4.03476315 30.37553211 -8.375 29.25 C-10.2003125 28.9096875 -10.2003125 28.9096875 -12.0625 28.5625 C-11.7325 25.2625 -11.4025 21.9625 -11.0625 18.5625 C-9.94875 19.7690625 -9.94875 19.7690625 -8.8125 21 C-5.8433989 23.81426869 -5.8433989 23.81426869 -2.0625 24.5625 C-1.7325 24.2325 -1.4025 23.9025 -1.0625 23.5625 C-1.0009058 20.15113524 -1.0009058 20.15113524 -2.0625 16.5625 C-5.01755946 14.12136393 -7.43776039 12.77074654 -11.0625 11.5625 C-12.25 8.5 -12.25 8.5 -13.0625 5.5625 C-14.0525 5.5625 -15.0425 5.5625 -16.0625 5.5625 Z " fill="#6BBC11" transform="translate(228.0625,107.4375)"/>
<path d="M0 0 C3.5026296 0.59287272 5.33030977 1.87513366 7.9375 4.25 C8.58589844 4.83265625 9.23429687 5.4153125 9.90234375 6.015625 C11.3719053 7.40582475 12.81673173 8.82242324 14.2421875 10.2578125 C18.5124945 14.50392513 22.95498221 18.56543772 27.38085938 22.6484375 C28.07373047 23.29296875 28.76660156 23.9375 29.48046875 24.6015625 C30.10848389 25.18244629 30.73649902 25.76333008 31.38354492 26.36181641 C33.53159471 28.53874045 34.97538675 30.11392308 35.0625 33.25 C33.70960341 36.7516147 31.6908458 38.54553753 28.984375 41.08984375 C26.26666056 43.70591139 23.84232243 46.54187664 21.3828125 49.3984375 C20.61429517 50.28852819 19.83152881 51.16847119 19 52 C16.97505769 52.09409479 14.9468013 52.11743122 12.91967773 52.11352539 C10.96776772 52.11341209 10.96776772 52.11341209 8.97642517 52.11329651 C7.54548098 52.10818909 6.11453718 52.10297308 4.68359375 52.09765625 C3.2277074 52.09579203 1.77182043 52.09436815 0.31593323 52.09336853 C-3.52279379 52.08954365 -7.36148319 52.07971364 -11.20019531 52.06866455 C-15.11457816 52.05844978 -19.02896706 52.05387077 -22.94335938 52.04882812 C-30.62892343 52.03809134 -38.31445645 52.02101529 -46 52 C-44.52330947 48.91885122 -42.99454498 46.71433419 -40.62109375 44.2421875 C-39.95190918 43.5394873 -39.28272461 42.83678711 -38.59326172 42.11279297 C-37.52615967 41.00508545 -37.52615967 41.00508545 -36.4375 39.875 C-34.96924876 38.33409838 -33.50179453 36.79243692 -32.03515625 35.25 C-31.33148926 34.51136719 -30.62782227 33.77273437 -29.90283203 33.01171875 C-26.99253229 29.93488145 -24.17769376 26.77744599 -21.36328125 23.61328125 C-17.53564295 19.38073576 -13.61559238 15.23367874 -9.69482422 11.08740234 C-9.11619629 10.47203613 -8.53756836 9.85666992 -7.94140625 9.22265625 C-7.16325562 8.39906616 -7.16325562 8.39906616 -6.36938477 7.55883789 C-4.79522684 5.83627003 -4.79522684 5.83627003 -3 3 C-2.34 3 -1.68 3 -1 3 C-0.67 2.01 -0.34 1.02 0 0 Z " fill="#508228" transform="translate(255,28)"/>
<path d="M0 0 C1.18529297 -0.020625 2.37058594 -0.04125 3.59179688 -0.0625 C10.97972329 -0.0956483 15.98907421 0.19604117 21.625 5.375 C23.93052684 9.30293462 24.50688802 12.71687144 24.3125 17.25 C22.77000389 22.47734793 20.8825875 25.27944312 16.3125 28.25 C11.14858171 29.9713061 5.71958764 29.30353552 0.3125 29.25 C0.3125 33.54 0.3125 37.83 0.3125 42.25 C-4.3075 42.25 -8.9275 42.25 -13.6875 42.25 C-13.71214638 36.42928378 -13.7303343 30.60859766 -13.74243164 24.7878418 C-13.74747267 22.80606559 -13.75430538 20.82429311 -13.76293945 18.8425293 C-13.77501515 16.00047891 -13.78073045 13.15847753 -13.78515625 10.31640625 C-13.79031754 9.42474258 -13.79547882 8.53307892 -13.80079651 7.61439514 C-13.80099177 5.49259399 -13.7496003 3.3708922 -13.6875 1.25 C-11.05722897 -1.38027103 -3.53583668 0.01513467 0 0 Z M0.3125 11.25 C0.27008277 13.58294775 0.27157063 15.91702567 0.3125 18.25 C0.6425 18.58 0.9725 18.91 1.3125 19.25 C3.22674457 19.1481629 3.22674457 19.1481629 5.375 18.8125 C7.3240625 18.5340625 7.3240625 18.5340625 9.3125 18.25 C9.35504356 16.25045254 9.35330783 14.24958364 9.3125 12.25 C8.32982141 11.04438816 8.32982141 11.04438816 6.46484375 11.15234375 C4.4140625 11.18489583 2.36328125 11.21744792 0.3125 11.25 Z " fill="#6E9E3F" transform="translate(227.6875,217.75)"/>
<path d="M0 0 C6.4659375 -0.12375 6.4659375 -0.12375 13.0625 -0.25 C15.08129272 -0.30462402 15.08129272 -0.30462402 17.14086914 -0.36035156 C23.97198444 -0.42360735 28.53781669 -0.27508949 34 4 C37.37390778 8.6799366 37.865351 13.40924917 37 19 C35.69705693 22.82049409 33.74755772 25.40578745 30.5625 27.9375 C25.01471512 29.59210251 19.77360854 29.17674312 14 29 C14 33.29 14 37.58 14 42 C9.38 42 4.76 42 0 42 C0 28.14 0 14.28 0 0 Z M14 11 C14 13.64 14 16.28 14 19 C18.7897321 19.23428313 18.7897321 19.23428313 23 17 C23.33343551 14.45792029 23.33343551 14.45792029 23 12 C22.01732141 10.79438816 22.01732141 10.79438816 20.15234375 10.90234375 C18.1015625 10.93489583 16.05078125 10.96744792 14 11 Z " fill="#6C9C3C" transform="translate(33,218)"/>
<path d="M0 0 C0.81605209 -0.00095673 1.63210419 -0.00191345 2.47288513 -0.00289917 C4.1986397 -0.00358006 5.92439683 -0.00173211 7.65014648 0.00244141 C10.30132758 0.00779782 12.95233978 0.00248983 15.60351562 -0.00390625 C17.27734413 -0.00324559 18.95117252 -0.00196467 20.625 0 C21.42289444 -0.00202423 22.22078888 -0.00404846 23.04286194 -0.00613403 C28.63113831 0.01785706 28.63113831 0.01785706 29.74609375 1.1328125 C29.84581161 3.04739532 29.87689964 4.96563567 29.87890625 6.8828125 C29.88083984 8.63078125 29.88083984 8.63078125 29.8828125 10.4140625 C29.87894531 11.64125 29.87507813 12.8684375 29.87109375 14.1328125 C29.87689453 15.97359375 29.87689453 15.97359375 29.8828125 17.8515625 C29.88152344 19.016875 29.88023437 20.1821875 29.87890625 21.3828125 C29.87777832 22.46046875 29.87665039 23.538125 29.87548828 24.6484375 C29.74609375 27.1328125 29.74609375 27.1328125 28.74609375 28.1328125 C26.04222917 28.24625203 23.36487654 28.29699409 20.66015625 28.30078125 C19.84743256 28.30410965 19.03470886 28.30743805 18.19735718 28.31086731 C16.47402514 28.31594049 14.75068325 28.31827552 13.02734375 28.31811523 C10.38915788 28.32029756 7.75139281 28.33843733 5.11328125 28.35742188 C3.44140768 28.36035653 1.76953213 28.36234084 0.09765625 28.36328125 C-0.69305267 28.37046677 -1.4837616 28.37765228 -2.2984314 28.38505554 C-6.14834213 28.3689908 -7.97436417 28.31917388 -11.25390625 26.1328125 C-12.5945394 22.11091305 -12.4380775 18.40618728 -12.44140625 14.1953125 C-12.45365234 13.38384766 -12.46589844 12.57238281 -12.47851562 11.73632812 C-12.48044922 10.95064453 -12.48238281 10.16496094 -12.484375 9.35546875 C-12.48848389 8.64140869 -12.49259277 7.92734863 -12.49682617 7.19165039 C-12.2123389 4.78051357 -11.52587941 3.19274354 -10.25390625 1.1328125 C-7.03737346 -0.4754539 -3.53239096 -0.00898435 0 0 Z M0.87109375 9.1953125 C-0.95239156 12.33575943 -0.11973465 14.7313438 0.74609375 18.1328125 C3.49451286 20.40952988 3.49451286 20.40952988 6.24609375 19.9453125 C8.99997198 19.05030208 10.21495612 18.59964536 11.74609375 16.1328125 C11.74609375 13.04947917 11.74609375 13.04947917 10.74609375 10.1328125 C7.18301942 7.75742961 4.72991492 7.00864717 0.87109375 9.1953125 Z " fill="#508229" transform="translate(269.25390625,125.8671875)"/>
<path d="M0 0 C2.4375 1.8125 2.4375 1.8125 4 4 C3.63924602 7.60002405 1.91997092 9.60335904 -0.4375 12.25 C-1.05496094 12.95640625 -1.67242187 13.6628125 -2.30859375 14.390625 C-4 16 -4 16 -6 16 C-6.495 17.485 -6.495 17.485 -7 19 C-7.66 19 -8.32 19 -9 19 C-9.40049561 19.88377319 -9.40049561 19.88377319 -9.80908203 20.78540039 C-11.02051438 23.038148 -12.29251597 24.5898936 -14.0546875 26.43359375 C-14.6640918 27.07651367 -15.27349609 27.71943359 -15.90136719 28.38183594 C-16.55266602 29.06020508 -17.20396484 29.73857422 -17.875 30.4375 C-19.23215707 31.86812328 -20.58892226 33.29911841 -21.9453125 34.73046875 C-22.6249707 35.44509277 -23.30462891 36.1597168 -24.00488281 36.89599609 C-26.94213201 39.99355037 -29.85064464 43.11700196 -32.75 46.25 C-33.23839355 46.77392334 -33.72678711 47.29784668 -34.22998047 47.83764648 C-36.17946667 49.94412671 -38.02185589 52.03027742 -39.703125 54.359375 C-40.13109375 54.90078125 -40.5590625 55.4421875 -41 56 C-41.66 56 -42.32 56 -43 56 C-43.433125 56.928125 -43.433125 56.928125 -43.875 57.875 C-45 60 -45 60 -47 62 C-49.74485593 62.14507695 -52.38480543 62.18652423 -55.125 62.125 C-55.87910156 62.11597656 -56.63320312 62.10695312 -57.41015625 62.09765625 C-59.27357254 62.0740687 -61.13682593 62.03819719 -63 62 C-62.1433706 57.6712876 -60.23790978 56.02674175 -57 53 C-53.44605528 49.54759656 -49.99675588 46.05146288 -46.765625 42.29296875 C-42.99729024 37.96113069 -39.07826635 33.78768571 -35.125 29.625 C-29.32740835 23.49300846 -23.61249283 17.30229642 -18 11 C-16.19243396 8.97468751 -14.37902663 6.95477661 -12.5625 4.9375 C-11.73878906 4.01839844 -10.91507813 3.09929688 -10.06640625 2.15234375 C-6.60600266 -1.45197076 -4.75784262 -1.23703908 0 0 Z " fill="#75BF23" transform="translate(247,18)"/>
<path d="M0 0 C4.29 0 8.58 0 13 0 C13.33 7.26 13.66 14.52 14 22 C17 23.33333333 17 23.33333333 20 22 C20.33 14.74 20.66 7.48 21 0 C25.29 0 29.58 0 34 0 C34 10.56 34 21.12 34 32 C30.37 32 26.74 32 23 32 C22.67 31.01 22.34 30.02 22 29 C21.175 29.66 20.35 30.32 19.5 31 C15.54118525 33.62985094 12.68553223 33.52061469 8 33 C4.73061371 31.69224548 3.37431939 30.53988374 1.375 27.65625 C-0.63470699 22.3122564 -0.31738756 17.28010459 -0.1875 11.625 C-0.17396484 10.50738281 -0.16042969 9.38976562 -0.14648438 8.23828125 C-0.11127537 5.49197912 -0.05747288 2.74592643 0 0 Z " fill="#6F9E40" transform="translate(277,228)"/>
<path d="M0 0 C3.9330838 3.8295816 5.95375528 7.85022092 6.03515625 13.39453125 C5.69561958 18.91821314 4.87893383 22.82268665 1 27 C-4.04640069 30.80860429 -9.08223299 31.63746913 -15.31640625 31.38671875 C-20.82039427 30.59356764 -24.58641695 28.44982877 -28.4375 24.5 C-31.3098191 19.90428945 -31.55171413 15.3666738 -31 10 C-29.02311598 3.75720834 -26.4036851 0.94496291 -20.8125 -2.25 C-13.78333426 -4.1244442 -6.36395507 -3.68284437 0 0 Z M-18 8 C-18.31991706 10.82870249 -18.31991706 10.82870249 -18.25 14 C-18.25515625 15.0725 -18.2603125 16.145 -18.265625 17.25 C-18.28027649 20.14362178 -18.28027649 20.14362178 -16 22 C-12.5 22.41666667 -12.5 22.41666667 -9 22 C-6.85446623 18.78169935 -6.70416132 17.73213493 -6.6875 14 C-6.67074219 13.13375 -6.65398437 12.2675 -6.63671875 11.375 C-6.81787796 8.95416817 -6.81787796 8.95416817 -8.328125 7.20703125 C-11.69003516 4.77985779 -15.1662601 5.1662601 -18 8 Z " fill="#6E9E3F" transform="translate(132,230)"/>
<path d="M0 0 C3.40641733 2.49803938 3.07672089 3.38360444 4 8 C0.04 8 -3.92 8 -8 8 C-8.33 7.34 -8.66 6.68 -9 6 C-11.32156597 5.59270772 -13.6568787 5.25561323 -16 5 C-16 5.99 -16 6.98 -16 8 C-15.11957031 8.10957031 -14.23914063 8.21914062 -13.33203125 8.33203125 C-12.17058594 8.49058594 -11.00914062 8.64914063 -9.8125 8.8125 C-8.66394531 8.96332031 -7.51539063 9.11414063 -6.33203125 9.26953125 C-1.96094637 10.22778784 0.85336199 11.85336199 4 15 C4.57059885 18.0572086 4.51926224 20.93741253 4 24 C1.14557869 27.83308005 -1.53338834 29.5132935 -6 31 C-13.39261296 31.87691685 -19.8752262 31.4822906 -26 27 C-28 25 -28 25 -29 23 C-29 21.68 -29 20.36 -29 19 C-27.20906809 18.91913853 -25.41710372 18.86087298 -23.625 18.8125 C-22.12839844 18.76029297 -22.12839844 18.76029297 -20.6015625 18.70703125 C-19.74304688 18.80371094 -18.88453125 18.90039062 -18 19 C-17.34 19.99 -16.68 20.98 -16 22 C-14.03638136 22.57748803 -14.03638136 22.57748803 -11.875 22.6875 C-10.59625 22.790625 -9.3175 22.89375 -8 23 C-8 22.01 -8 21.02 -8 20 C-8.95261719 19.81824219 -9.90523438 19.63648438 -10.88671875 19.44921875 C-12.14097656 19.19785156 -13.39523437 18.94648438 -14.6875 18.6875 C-15.92886719 18.44386719 -17.17023438 18.20023438 -18.44921875 17.94921875 C-21.83242221 17.04479802 -24.17470661 16.03903364 -27 14 C-28.61289621 10.77420757 -28.58915133 7.48804367 -28 4 C-21.31916129 -5.03878179 -9.20710189 -5.07330104 0 0 Z " fill="#6F9F41" transform="translate(345,230)"/>
<path d="M0 0 C0.66 0 1.32 0 2 0 C2.33 1.32 2.66 2.64 3 4 C3.33 3.34 3.66 2.68 4 2 C6.48412207 1.17195931 8.35220307 1 11 1 C11 3.31 11 5.62 11 8 C10.34 8 9.68 8 9 8 C9 9.32 9 10.64 9 12 C9.78375 12.103125 10.5675 12.20625 11.375 12.3125 C14 13 14 13 16 16 C16 16.99 16 17.98 16 19 C16.66 19 17.32 19 18 19 C18 18.34 18 17.68 18 17 C19.32 17 20.64 17 22 17 C22 19.97 22 22.94 22 26 C20 25 20 25 18.6875 23.5 C16.54871239 21.59885546 14.79399658 21.37756711 12 21 C12.50505499 24.70373662 12.94162106 27.84467931 15 31 C17.13959942 32.08190304 17.13959942 32.08190304 19.5625 32.8125 C22 33.78515625 22 33.78515625 24 35 C25.0625 38.75 25.0625 38.75 25 42 C28.22404978 40.33045181 28.22404978 40.33045181 28.6875 37.375 C28.790625 36.59125 28.89375 35.8075 29 35 C41.5 35 41.5 35 45 36 C45 36.99 45 37.98 45 39 C39.24038678 44.75961322 33.7717617 46.07693434 25.6875 46.4375 C16.81425886 46.28468873 9.96164981 42.59067648 3.46875 36.6796875 C-1.88088231 30.56175693 -3.15207584 23.70206448 -3.0625 15.8125 C-3.05798828 15.06291016 -3.05347656 14.31332031 -3.04882812 13.54101562 C-3.03706354 11.69397617 -3.01912865 9.84697787 -3 8 C-2.01 7.67 -1.02 7.34 0 7 C0 4.69 0 2.38 0 0 Z " fill="#6EBD17" transform="translate(187,125)"/>
<path d="M0 0 C0 2.64 0 5.28 0 8 C-1.65 8.33 -3.3 8.66 -5 9 C-5.33 9.99 -5.66 10.98 -6 12 C-4.02 12 -2.04 12 0 12 C0 14.97 0 17.94 0 21 C-1.98 21 -3.96 21 -6 21 C-6 28.59 -6 36.18 -6 44 C-10.29 44 -14.58 44 -19 44 C-19 36.41 -19 28.82 -19 21 C-20.32 20.67 -21.64 20.34 -23 20 C-23 17.36 -23 14.72 -23 12 C-21.68 12 -20.36 12 -19 12 C-18.90203125 11.38511719 -18.8040625 10.77023438 -18.703125 10.13671875 C-17.47313196 3.48839428 -17.47313196 3.48839428 -15.0625 1 C-10.04727118 -1.43162609 -5.30406899 -1.768023 0 0 Z " fill="#6E9E3F" transform="translate(163,216)"/>
<path d="M0 0 C3.3 0 6.6 0 10 0 C10 3.3 10 6.6 10 10 C11.98 10 13.96 10 16 10 C16 12.97 16 15.94 16 19 C14.02 19 12.04 19 10 19 C10 23.95 10 28.9 10 34 C11.98 34 13.96 34 16 34 C16 36.64 16 39.28 16 42 C11.6123659 44.19381705 5.63399224 43.40849806 1 42.25 C-1.43350561 40.72905899 -1.93324952 39.63605374 -3 37 C-3.22705078 34.89355469 -3.22705078 34.89355469 -3.1953125 32.671875 C-3.18886719 31.87265625 -3.18242187 31.0734375 -3.17578125 30.25 C-3.15902344 29.425 -3.14226562 28.6 -3.125 27.75 C-3.11597656 26.90953125 -3.10695312 26.0690625 -3.09765625 25.203125 C-3.07415817 23.13529396 -3.03828908 21.06761005 -3 19 C-4.32 19 -5.64 19 -7 19 C-7 16.03 -7 13.06 -7 10 C-5.35 10 -3.7 10 -2 10 C-1.855625 8.906875 -1.71125 7.81375 -1.5625 6.6875 C-1 3 -1 3 0 0 Z " fill="#6F9E40" transform="translate(192,218)"/>
<path d="M0 0 C8.28702714 4.69763614 15.4293968 11.62091603 18.9375 20.5625 C21.69114718 31.46980378 20.13902253 41.76399055 14.8515625 51.578125 C13.8125 53.25 13.8125 53.25 11.9375 55.5625 C11.2775 55.5625 10.6175 55.5625 9.9375 55.5625 C9.6075 56.5525 9.2775 57.5425 8.9375 58.5625 C-0.66125391 65.78914806 -10.21503373 67.63954239 -22.0625 66.5625 C-30.3000336 64.40505072 -38.34821343 58.63392985 -43.0625 51.5625 C-43.0625 50.9025 -43.0625 50.2425 -43.0625 49.5625 C-43.7225 49.5625 -44.3825 49.5625 -45.0625 49.5625 C-47.63193008 43.58994178 -48.61282801 38.67327738 -48.5625 32.1875 C-48.55822998 31.35259033 -48.55395996 30.51768066 -48.54956055 29.6574707 C-48.36553924 22.98523517 -47.04461633 18.02274262 -43.0625 12.5625 C-42.32 11.49 -41.5775 10.4175 -40.8125 9.3125 C-30.29836615 -1.20163385 -14.32701241 -5.65336165 0 0 Z M-40.68359375 14.60546875 C-45.9651903 22.10144572 -45.89226921 29.59177293 -45.0625 38.5625 C-42.77559094 48.65686741 -37.90148887 54.6609087 -29.34375 60.265625 C-22.10266904 64.38212993 -14.55544695 64.67736479 -6.42578125 63.02734375 C3.15310234 60.05122202 9.10603122 53.92655629 14.8125 45.9375 C18.51495326 38.12120978 17.77740321 28.01696931 15.015625 20.0078125 C11.24435496 11.45413481 5.32876669 6.49241351 -3.23046875 2.8203125 C-17.7105792 -2.50134207 -31.46947648 2.99346072 -40.68359375 14.60546875 Z " fill="#ECF4E5" transform="translate(228.0625,107.4375)"/>
<path d="M0 0 C3.96 0 7.92 0 12 0 C12 14.52 12 29.04 12 44 C7.71 44 3.42 44 -1 44 C-1.02464513 37.8944529 -1.04283371 31.78893449 -1.05493164 25.68334961 C-1.05997288 23.60456844 -1.06680574 21.52579084 -1.07543945 19.44702148 C-1.08751422 16.46597414 -1.09323024 13.48497351 -1.09765625 10.50390625 C-1.10539818 9.10078941 -1.10539818 9.10078941 -1.11329651 7.66932678 C-1.11337204 6.80850998 -1.11344757 5.94769318 -1.11352539 5.06079102 C-1.115746 4.29912125 -1.11796661 3.53745148 -1.12025452 2.75270081 C-1 1 -1 1 0 0 Z " fill="#709F42" transform="translate(258,216)"/>
<path d="M0 0 C0 3.63 0 7.26 0 11 C-3.46679688 11.9765625 -3.46679688 11.9765625 -6.93359375 12.953125 C-9.10430041 13.7842632 -9.10430041 13.7842632 -9.75 15.625 C-10.10488542 18.99641145 -10.36740894 22.36628947 -10.5625 25.75 C-10.60568359 26.44738281 -10.64886719 27.14476562 -10.69335938 27.86328125 C-10.79889596 29.57531922 -10.8998991 31.28763561 -11 33 C-14.96 33 -18.92 33 -23 33 C-23 22.44 -23 11.88 -23 1 C-19.7 1 -16.4 1 -13 1 C-12.34 1.66 -11.68 2.32 -11 3 C-10.484375 2.505 -9.96875 2.01 -9.4375 1.5 C-6.19319983 -0.49649241 -3.73782666 -0.21564385 0 0 Z " fill="#699B39" transform="translate(99,227)"/>
<path d="M0 0 C0.81605209 -0.00095673 1.63210419 -0.00191345 2.47288513 -0.00289917 C4.1986397 -0.00358006 5.92439683 -0.00173211 7.65014648 0.00244141 C10.30132758 0.00779782 12.95233978 0.00248983 15.60351562 -0.00390625 C17.27734413 -0.00324559 18.95117252 -0.00196467 20.625 0 C21.42289444 -0.00202423 22.22078888 -0.00404846 23.04286194 -0.00613403 C28.63113831 0.01785706 28.63113831 0.01785706 29.74609375 1.1328125 C29.84581161 3.04739532 29.87689964 4.96563567 29.87890625 6.8828125 C29.88083984 8.63078125 29.88083984 8.63078125 29.8828125 10.4140625 C29.87894531 11.64125 29.87507813 12.8684375 29.87109375 14.1328125 C29.87689453 15.97359375 29.87689453 15.97359375 29.8828125 17.8515625 C29.88152344 19.016875 29.88023437 20.1821875 29.87890625 21.3828125 C29.87777832 22.46046875 29.87665039 23.538125 29.87548828 24.6484375 C29.74609375 27.1328125 29.74609375 27.1328125 28.74609375 28.1328125 C26.04222917 28.24625203 23.36487654 28.29699409 20.66015625 28.30078125 C19.84743256 28.30410965 19.03470886 28.30743805 18.19735718 28.31086731 C16.47402514 28.31594049 14.75068325 28.31827552 13.02734375 28.31811523 C10.38915788 28.32029756 7.75139281 28.33843733 5.11328125 28.35742188 C3.44140768 28.36035653 1.76953213 28.36234084 0.09765625 28.36328125 C-0.69305267 28.37046677 -1.4837616 28.37765228 -2.2984314 28.38505554 C-6.14834213 28.3689908 -7.97436417 28.31917388 -11.25390625 26.1328125 C-12.5945394 22.11091305 -12.4380775 18.40618728 -12.44140625 14.1953125 C-12.45365234 13.38384766 -12.46589844 12.57238281 -12.47851562 11.73632812 C-12.48044922 10.95064453 -12.48238281 10.16496094 -12.484375 9.35546875 C-12.48848389 8.64140869 -12.49259277 7.92734863 -12.49682617 7.19165039 C-12.2123389 4.78051357 -11.52587941 3.19274354 -10.25390625 1.1328125 C-7.03737346 -0.4754539 -3.53239096 -0.00898435 0 0 Z M5.74609375 1.1328125 C5.74609375 3.1128125 5.74609375 5.0928125 5.74609375 7.1328125 C4.42609375 7.1328125 3.10609375 7.1328125 1.74609375 7.1328125 C-0.1729399 9.9549208 -0.24500837 11.26183182 -0.00390625 14.7578125 C0.4409056 18.18554134 0.4409056 18.18554134 2.74609375 20.1328125 C2.08609375 20.1328125 1.42609375 20.1328125 0.74609375 20.1328125 C0.77703125 21.3084375 0.77703125 21.3084375 0.80859375 22.5078125 C0.74609375 25.1328125 0.74609375 25.1328125 -0.25390625 27.1328125 C8.98609375 27.1328125 18.22609375 27.1328125 27.74609375 27.1328125 C27.74609375 18.5528125 27.74609375 9.9728125 27.74609375 1.1328125 C20.48609375 1.1328125 13.22609375 1.1328125 5.74609375 1.1328125 Z " fill="#6C954B" transform="translate(269.25390625,125.8671875)"/>
<path d="M0 0 C0.99 0.33 1.98 0.66 3 1 C3.495 3.97 3.495 3.97 4 7 C4.66 5.68 5.32 4.36 6 3 C6.99 3 7.98 3 9 3 C8.39301257 7.12751449 6.96189209 10.3321148 5 14 C4.01 13.67 3.02 13.34 2 13 C1.67 13.66 1.34 14.32 1 15 C-2.46430133 16.28013987 -6.04213319 16.18796839 -9.69921875 16.28125 C-10.99021484 16.31863281 -12.28121094 16.35601562 -13.61132812 16.39453125 C-15.65890594 16.44833045 -17.70652022 16.50048084 -19.75415039 16.55224609 C-21.73594563 16.60383193 -23.71758784 16.66119637 -25.69921875 16.71875 C-26.88346436 16.74904297 -28.06770996 16.77933594 -29.2878418 16.81054688 C-31.91471953 16.69601477 -31.91471953 16.69601477 -33 18 C-33.12375 19.11375 -33.2475 20.2275 -33.375 21.375 C-34 25 -34 25 -35.4375 26.9375 C-37 28 -37 28 -39 28 C-39 28.66 -39 29.32 -39 30 C17.76 30 74.52 30 133 30 C133 30.33 133 30.66 133 31 C110.5299776 31.07005531 88.05997319 31.12297113 65.58986378 31.15543652 C55.1567959 31.17091086 44.72379584 31.19201126 34.29077148 31.22631836 C25.19822844 31.2562033 16.10573451 31.27557087 7.01314372 31.28226548 C2.19788228 31.28617927 -2.61723863 31.29538905 -7.43245506 31.31719017 C-11.96402639 31.33754099 -16.49539919 31.34383664 -21.02701187 31.33932304 C-22.69069433 31.34014887 -24.35438339 31.34612291 -26.01802635 31.35761642 C-28.28925455 31.37253883 -30.5597329 31.36895492 -32.83097839 31.36076355 C-34.73770718 31.36491162 -34.73770718 31.36491162 -36.68295574 31.36914349 C-40.26357999 30.97066701 -42.14820775 30.16126696 -45 28 C-46.56700442 24.86599115 -46.85164561 21.36844905 -46 18 C-43.18326262 15.02959728 -41.03391982 13.7507566 -37.00756836 13.51757812 C-35.45171801 13.50340821 -33.89560008 13.50903832 -32.33984375 13.53125 C-31.51295547 13.52420044 -30.6860672 13.51715088 -29.8341217 13.5098877 C-27.2015974 13.48789317 -24.57008915 13.49085154 -21.9375 13.5 C-18.46689839 13.5120364 -14.99781216 13.49837143 -11.52734375 13.46875 C-10.73247055 13.48006958 -9.93759735 13.49138916 -9.11863708 13.50305176 C-5.50029857 13.46995817 -3.41971251 13.31314916 -0.4777832 11.11816406 C1.35704817 8.48822898 1.29978487 7.36544762 0.75 4.25 C0.62109375 3.45078125 0.4921875 2.6515625 0.359375 1.828125 C0.24078125 1.22484375 0.1221875 0.6215625 0 0 Z " fill="#8CC652" transform="translate(153,166)"/>
<path d="M0 0 C4.29 0 8.58 0 13 0 C13 10.56 13 21.12 13 32 C8.71 32 4.42 32 0 32 C0 21.44 0 10.88 0 0 Z " fill="#709F41" transform="translate(167,228)"/>
<path d="M0 0 C0.66 0 1.32 0 2 0 C2.33 1.32 2.66 2.64 3 4 C3.33 3.34 3.66 2.68 4 2 C6.48412207 1.17195931 8.35220307 1 11 1 C11 3.31 11 5.62 11 8 C10.34 8 9.68 8 9 8 C9 9.32 9 10.64 9 12 C9.78375 12.103125 10.5675 12.20625 11.375 12.3125 C14 13 14 13 16 16 C16 16.99 16 17.98 16 19 C16.66 19 17.32 19 18 19 C18 18.34 18 17.68 18 17 C19.32 17 20.64 17 22 17 C22 19.97 22 22.94 22 26 C20 25 20 25 18 23 C18 22.01 18 21.02 18 20 C15.36 20 12.72 20 10 20 C10 21.98 10 23.96 10 26 C8 26 6 26 4 26 C3.67 27.65 3.34 29.3 3 31 C3.66 31.33 4.32 31.66 5 32 C4.67 33.32 4.34 34.64 4 36 C0.00140201 32.69081546 -2.01740577 29.03670526 -3 24 C-3.34348344 18.67129215 -3.1747287 13.33246106 -3 8 C-2.01 7.67 -1.02 7.34 0 7 C0 4.69 0 2.38 0 0 Z " fill="#6ABB0F" transform="translate(187,125)"/>
<path d="M0 0 C16.06409186 0.06056004 32.12799882 0.13807787 48.19190407 0.23571491 C55.65087088 0.28065658 63.10979012 0.32007495 70.56884766 0.34643555 C77.07111608 0.36942889 83.57323376 0.40284171 90.07538259 0.44870156 C93.51738613 0.47261597 96.95924054 0.49135633 100.40132523 0.49761391 C104.24639484 0.5047995 108.0910911 0.53525009 111.93603516 0.56762695 C113.07395508 0.56619186 114.211875 0.56475677 115.38427734 0.5632782 C121.81655722 0.63996956 126.71548403 0.99810517 131.6796875 5.53515625 C135 9.77777778 135 9.77777778 135 12 C134.01 12.33 133.02 12.66 132 13 C131.67 11.68 131.34 10.36 131 9 C130.08476562 8.93941406 129.16953125 8.87882812 128.2265625 8.81640625 C127.03804688 8.73261719 125.84953125 8.64882812 124.625 8.5625 C123.44164062 8.48128906 122.25828125 8.40007812 121.0390625 8.31640625 C118 8 118 8 116 7 C116 6.34 116 5.68 116 5 C116.66 5 117.32 5 118 5 C118 4.34 118 3.68 118 3 C117.30376526 3.16233124 116.60753052 3.32466248 115.89019775 3.49191284 C112.78567942 4.03767684 109.90863504 4.12708832 106.75683594 4.12939453 C104.90031403 4.13412277 104.90031403 4.13412277 103.00628662 4.13894653 C101.66564905 4.13715731 100.3250118 4.1351065 98.984375 4.1328125 C97.60386132 4.13348644 96.22334775 4.13445722 94.84283447 4.13571167 C91.95803694 4.13718242 89.07327047 4.13505281 86.18847656 4.13037109 C82.48377916 4.12465271 78.77915388 4.12797 75.07445908 4.13394356 C72.22812348 4.13754776 69.38180515 4.13641162 66.53546906 4.13381577 C65.16866294 4.13314721 63.80185527 4.13397244 62.43505096 4.13629532 C60.53189624 4.13882179 58.62873604 4.13429141 56.72558594 4.12939453 C55.64146423 4.12859894 54.55734253 4.12780334 53.44036865 4.12698364 C51 4 51 4 50 3 C48.46617321 2.8774645 46.92689481 2.82222062 45.38842773 2.79467773 C44.40748642 2.77473251 43.4265451 2.75478729 42.4158783 2.73423767 C40.81589745 2.70916893 40.81589745 2.70916893 39.18359375 2.68359375 C38.0974025 2.66281265 37.01121124 2.64203156 35.8921051 2.62062073 C32.40730373 2.55500558 28.92242432 2.49618489 25.4375 2.4375 C23.08137199 2.39432615 20.72525201 2.35071224 18.36914062 2.30664062 C12.57951063 2.19931208 6.78980225 2.09756835 1 2 C0.67 1.34 0.34 0.68 0 0 Z " fill="#94CB5C" transform="translate(162,82)"/>
<path d="M0 0 C4.97810958 5.430665 5.35968816 12.58585192 5.1875 19.61328125 C4.71296261 25.6537468 2.79224899 30.28841792 -1 35 C-1.99 35 -2.98 35 -4 35 C-4 35.66 -4 36.32 -4 37 C-6.31 36.67 -8.62 36.34 -11 36 C-11.495 34.515 -11.495 34.515 -12 33 C-11.34 33 -10.68 33 -10 33 C-10 30.47908058 -10.01828015 27.95803156 -10.0625 25.4375 C-10 22 -10 22 -9 19 C-8.34 18.67 -7.68 18.34 -7 18 C-5.89785192 15.74015791 -4.89565605 13.50712353 -3.9375 11.1875 C-3.66873047 10.55779297 -3.39996094 9.92808594 -3.12304688 9.27929688 C-1.83854437 6.2266014 -0.6632762 3.25087222 0 0 Z " fill="#68BB0B" transform="translate(240,123)"/>
<path d="M0 0 C3.0859375 0.4453125 3.0859375 0.4453125 6.3984375 2.5078125 C8.51885873 6.19891613 8.77206888 8.25228739 8.0859375 12.4453125 C6.21885245 14.81028689 4.76532319 16.10561965 2.0859375 17.4453125 C-2.53468955 17.87057375 -6.62696807 18.00841631 -10.9140625 16.1328125 C-12.9140625 14.4453125 -12.9140625 14.4453125 -14.9140625 11.4453125 C-14.77796704 7.70268726 -14.54432987 5.27970902 -12.26171875 2.2578125 C-8.40149502 -0.72246007 -4.70999242 -0.15876379 0 0 Z " fill="#68BC0A" transform="translate(92.9140625,147.5546875)"/>
<path d="M0 0 C3.25 1.5 3.25 1.5 5 4 C5.62664802 6.80554343 5.63913573 9.19586397 5 12 C3.12984906 14.43119623 1.71861655 15.64069173 -1 17 C-6.37735191 17.60614273 -10.59564427 17.98304901 -15.125 14.8125 C-17.03317604 11.95023594 -18 10.43028012 -18 7 C-14.21280038 -1.14247919 -8.07944717 -0.84932194 0 0 Z " fill="#75BE22" transform="translate(86,180)"/>
<path d="M0 0 C1.29550781 -0.02126953 1.29550781 -0.02126953 2.6171875 -0.04296875 C5.28332863 0.20205045 6.86660254 0.77725625 9.125 2.1875 C11.42468563 5.40705988 11.67848638 8.31309532 11.125 12.1875 C9.4375 15.0625 9.4375 15.0625 6.125 17.1875 C1.71809817 17.82901103 -2.48856186 17.99980336 -6.875 17.1875 C-9.32608814 15.34211733 -10.61362838 14.17148726 -11.40625 11.1875 C-11.34880665 7.5111257 -11.30792605 5.75030387 -9 2.75 C-5.78609589 0.38683521 -3.95029291 0.02930484 0 0 Z " fill="#6ABB0F" transform="translate(92.875,82.8125)"/>
<path d="M0 0 C1.23492187 -0.02835937 2.46984375 -0.05671875 3.7421875 -0.0859375 C7.125 0.375 7.125 0.375 9.53515625 2.1484375 C11.66234261 5.1275437 11.78355321 6.9040137 11.55078125 10.46875 C11.125 12.375 11.125 12.375 9.375 14.875 C4.35252356 17.19306605 -0.44100176 17.11907445 -5.875 16.375 C-9.32662095 14.54767126 -10.41213292 13.50323851 -11.875 9.9375 C-11.875 2.2450978 -6.66843061 0.06931841 0 0 Z " fill="#69BB0E" transform="translate(69.875,115.625)"/>
<path d="M0 0 C0 0.99 0 1.98 0 3 C-0.66 3 -1.32 3 -2 3 C-2 3.66 -2 4.32 -2 5 C-1.4225 4.649375 -0.845 4.29875 -0.25 3.9375 C2.39392586 2.83586422 3.36171148 3.03262754 6 4 C6.66 4.33 7.32 4.66 8 5 C8 4.34 8 3.68 8 3 C9.32 2.67 10.64 2.34 12 2 C12 4.25 12 4.25 11 7 C9.02890854 8.19998315 7.05614334 9.06500344 4.91015625 9.91015625 C2.50010835 11.28521425 1.91276317 12.40659353 1 15 C1.13588313 18.80472754 1.38221076 21.17628101 3.6875 24.25 C6.31753729 26.24029849 9.00184818 27.63720372 12 29 C12 32.96 12 36.92 12 41 C10.68 40.67 9.36 40.34 8 40 C6.75 37.4375 6.75 37.4375 6 35 C9 37 9 37 10 38 C10 35.03 10 32.06 10 29 C8.68 29 7.36 29 6 29 C6 29.66 6 30.32 6 31 C5.34 31 4.68 31 4 31 C3.34 29.68 2.68 28.36 2 27 C1.34 27 0.68 27 0 27 C0 26.01 0 25.02 0 24 C-0.99 24 -1.98 24 -3 24 C-3 22.68 -3 21.36 -3 20 C-2.34 20 -1.68 20 -1 20 C-2.15173355 17.53199953 -3.04783565 15.95216435 -5 14 C-5.99 14 -6.98 14 -8 14 C-8.33 14.99 -8.66 15.98 -9 17 C-9.33 17 -9.66 17 -10 17 C-10 15.35 -10 13.7 -10 12 C-10.66 12 -11.32 12 -12 12 C-11.773125 12.763125 -11.54625 13.52625 -11.3125 14.3125 C-11.209375 15.199375 -11.10625 16.08625 -11 17 C-11.474375 17.4125 -11.94875 17.825 -12.4375 18.25 C-14.7761175 20.8692516 -14.51691037 23.2415895 -14.6875 26.6875 C-14.75324219 27.86699219 -14.81898438 29.04648438 -14.88671875 30.26171875 C-14.92410156 31.16535156 -14.96148437 32.06898438 -15 33 C-15.33 33 -15.66 33 -16 33 C-16.62717435 19.62028046 -14.95056355 12.8456199 -5.8046875 2.78515625 C-3.79735749 0.79955059 -2.83926115 0 0 0 Z " fill="#76BF26" transform="translate(199,113)"/>
<path d="M0 0 C1.6097168 0.00966797 1.6097168 0.00966797 3.25195312 0.01953125 C4.9312793 0.04466797 4.9312793 0.04466797 6.64453125 0.0703125 C7.77568359 0.07933594 8.90683594 0.08835937 10.07226562 0.09765625 C12.86739953 0.12124388 15.6621097 0.1541595 18.45703125 0.1953125 C18.45703125 4.22537063 17.06621647 5.76308264 14.43554688 8.69824219 C10.71214424 11.5156046 6.69392367 11.0465967 2.20703125 10.8203125 C0.84191406 10.81064453 0.84191406 10.81064453 -0.55078125 10.80078125 C-5.44264878 10.67739587 -5.44264878 10.67739587 -7.54296875 10.1953125 C-9.54296875 7.1953125 -9.54296875 7.1953125 -9.35546875 4.6328125 C-7.75467807 -0.16955953 -4.44530591 -0.04704027 0 0 Z " fill="#598733" transform="translate(169.54296875,66.8046875)"/>
<path d="M0 0 C1 2 1 2 0 6 C3.63 6 7.26 6 11 6 C11 6.66 11 7.32 11 8 C10.34 8 9.68 8 9 8 C8.566875 8.928125 8.566875 8.928125 8.125 9.875 C7 12 7 12 5 14 C2.25514407 14.14507695 -0.38480543 14.18652423 -3.125 14.125 C-3.87910156 14.11597656 -4.63320312 14.10695313 -5.41015625 14.09765625 C-7.27357254 14.0740687 -9.13682593 14.03819719 -11 14 C-10.1632009 9.69776114 -8.20708894 7.98842379 -5 5 C-4.071875 4.071875 -3.14375 3.14375 -2.1875 2.1875 C-1.1046875 1.1046875 -1.1046875 1.1046875 0 0 Z " fill="#85C240" transform="translate(195,66)"/>
<path d="M0 0 C3.3868843 0.82790505 5.50045913 1.45050505 7.875 4.0625 C9.41752537 8.09020514 9.2506888 11.73829032 9 16 C7.68 15.67 6.36 15.34 5 15 C5 14.34 5 13.68 5 13 C0.71 12.01 -3.58 11.02 -8 10 C-6.04034872 6.08069743 -4.13572386 3.97491751 -1 1 C-0.67 0.67 -0.34 0.34 0 0 Z " fill="#689148" transform="translate(290,67)"/>
<path d="M0 0 C1.5625 1.875 1.5625 1.875 1.5625 5.875 C0.9025 5.875 0.2425 5.875 -0.4375 5.875 C-0.4375 6.865 -0.4375 7.855 -0.4375 8.875 C-1.4275 8.875 -2.4175 8.875 -3.4375 8.875 C-3.4375 10.195 -3.4375 11.515 -3.4375 12.875 C-7.41946457 13.92904945 -10.41945309 13.71598656 -14.4375 12.875 C-14.02708626 7.64222477 -13.36111463 4.48885558 -9.4375 0.875 C-3.56095679 -1.64351852 -3.56095679 -1.64351852 0 0 Z " fill="#6FBE19" transform="translate(209.4375,59.125)"/>
<path d="M0 0 C2.16483561 3.24725341 4.25338656 6.50677312 6 10 C4.68 9.34 3.36 8.68 2 8 C1.67 10.31 1.34 12.62 1 15 C-3.16063736 17.04519135 -6.10941832 17.08639681 -10.6875 16.625 C-23.02158047 15.51942268 -23.02158047 15.51942268 -35 18 C-34 15 -34 15 -31 13 C-27.8137207 12.77294922 -27.8137207 12.77294922 -23.92578125 12.8046875 C-22.90003242 12.80893234 -22.90003242 12.80893234 -21.8535614 12.81326294 C-19.67302835 12.82444316 -17.49290855 12.84954309 -15.3125 12.875 C-13.83268823 12.88503262 -12.35287001 12.89415798 -10.87304688 12.90234375 C-7.248564 12.92437519 -3.62432234 12.95888998 0 13 C0 8.71 0 4.42 0 0 Z " fill="#91C859" transform="translate(153,70)"/>
<path d="M0 0 C4.29 0 8.58 0 13 0 C13.09765625 6.15234375 13.09765625 6.15234375 13 8 C12 9 12 9 9.27734375 9.09765625 C7.62412109 9.08025391 7.62412109 9.08025391 5.9375 9.0625 C4.83277344 9.05347656 3.72804687 9.04445312 2.58984375 9.03515625 C1.30787109 9.01775391 1.30787109 9.01775391 0 9 C0 6.03 0 3.06 0 0 Z " fill="#7BA751" transform="translate(167,216)"/>
<path d="M0 0 C2.0641433 1.88031375 3.39473835 3.66507396 5 6 C5 6.66 5 7.32 5 8 C4.01 8.33 3.02 8.66 2 9 C1.67 7.68 1.34 6.36 1 5 C-0.37285156 4.90912109 -0.37285156 4.90912109 -1.7734375 4.81640625 C-2.96195312 4.73261719 -4.15046875 4.64882812 -5.375 4.5625 C-6.55835938 4.48128906 -7.74171875 4.40007812 -8.9609375 4.31640625 C-12 4 -12 4 -14 3 C-14 2.34 -14 1.68 -14 1 C-13.34 1 -12.68 1 -12 1 C-12 0.34 -12 -0.32 -12 -1 C-15.63 -0.67 -19.26 -0.34 -23 0 C-23 -0.33 -23 -0.66 -23 -1 C-15.52157442 -2.68737039 -7.11882899 -3.13228476 0 0 Z " fill="#6ABA17" transform="translate(292,86)"/>
<path d="M0 0 C2.31 0.66 4.62 1.32 7 2 C6.34 5.63 5.68 9.26 5 13 C5.66 13.33 6.32 13.66 7 14 C6.01 15.485 6.01 15.485 5 17 C4.34 17 3.68 17 3 17 C5.46278801 19.46278801 7.70676982 19.99771255 11 21 C11 20.34 11 19.68 11 19 C11.99 19.33 12.98 19.66 14 20 C11.69 22.31 9.38 24.62 7 27 C6.01 26.67 5.02 26.34 4 26 C4.99 25.67 5.98 25.34 7 25 C7 24.01 7 23.02 7 22 C5.4221875 22.309375 5.4221875 22.309375 3.8125 22.625 C0.00375113 22.99963104 -1.66835752 22.71630067 -5 21 C-4.236875 20.4225 -3.47375 19.845 -2.6875 19.25 C1.5770788 15.85644739 1.5770788 15.85644739 3.28515625 10.88671875 C3.42636443 7.13549265 3.42338599 4.72328439 1.5 1.4375 C1.005 0.963125 0.51 0.48875 0 0 Z " fill="#83C13B" transform="translate(225,139)"/>
<path d="M0 0 C0.99 0.33 1.98 0.66 3 1 C3.495 3.97 3.495 3.97 4 7 C4.66 5.68 5.32 4.36 6 3 C6.99 3 7.98 3 9 3 C8.39301257 7.12751449 6.96189209 10.3321148 5 14 C4.01 13.67 3.02 13.34 2 13 C1.67 13.66 1.34 14.32 1 15 C-12.86 15 -26.72 15 -41 15 C-41 14.67 -41 14.34 -41 14 C-39.30472168 13.98598145 -39.30472168 13.98598145 -37.57519531 13.97167969 C-33.37785579 13.93177608 -29.18124896 13.86601674 -24.984375 13.79248047 C-23.16871561 13.7642729 -21.35293348 13.74305726 -19.53710938 13.72900391 C-16.92514211 13.70757091 -14.31465026 13.66092115 -11.703125 13.609375 C-10.89256653 13.60814636 -10.08200806 13.60691772 -9.24688721 13.60565186 C-5.60225408 13.51115028 -3.42920082 13.32032876 -0.46679688 11.109375 C1.35765671 8.48566012 1.29801025 7.35539141 0.75 4.25 C0.62109375 3.45078125 0.4921875 2.6515625 0.359375 1.828125 C0.24078125 1.22484375 0.1221875 0.6215625 0 0 Z " fill="#6ABA16" transform="translate(153,166)"/>
<path d="M0 0 C11.5 0 11.5 0 15 1 C15 4 15 4 13.5 6.1875 C9.83039328 8.84796487 7.48635855 8.3560602 3 8 C2.01 7.67 1.02 7.34 0 7 C0 4.69 0 2.38 0 0 Z " fill="#6ABB0D" transform="translate(217,160)"/>
<path d="M0 0 C-0.33 0.99 -0.66 1.98 -1 3 C-15.85 3.33 -30.7 3.66 -46 4 C-44 1 -44 1 -42.1784668 0.60127258 C-41.44281494 0.59016953 -40.70716309 0.57906647 -39.94921875 0.56762695 C-39.11495361 0.54783279 -38.28068848 0.52803864 -37.42114258 0.50764465 C-36.51904053 0.50125473 -35.61693848 0.49486481 -34.6875 0.48828125 C-33.76283936 0.47033005 -32.83817871 0.45237885 -31.88549805 0.43388367 C-28.9237123 0.37960446 -25.96208831 0.34584388 -23 0.3125 C-21.0025814 0.2793391 -19.00518436 0.2448506 -17.0078125 0.20898438 C-4.91541663 0 -4.91541663 0 0 0 Z " fill="#91C858" transform="translate(164,147)"/>
<path d="M0 0 C0.33 1.65 0.66 3.3 1 5 C0.01 5.495 0.01 5.495 -1 6 C-2.13350534 8.01669827 -2.13350534 8.01669827 -3 10 C-5.97 9.505 -5.97 9.505 -9 9 C-9.33 9.99 -9.66 10.98 -10 12 C-11.14271055 8.57186835 -10.82699932 7.69088901 -9.6875 4.375 C-9.42324219 3.57835937 -9.15898437 2.78171875 -8.88671875 1.9609375 C-6.98779342 -2.23844804 -3.8698568 -0.7571459 0 0 Z " fill="#75BE24" transform="translate(247,18)"/>
<path d="M0 0 C0.33 0.9075 0.66 1.815 1 2.75 C3.71153618 7.15624629 6.29467537 7.9944518 11 10 C11 13.96 11 17.92 11 22 C9.68 21.67 8.36 21.34 7 21 C5.75 18.4375 5.75 18.4375 5 16 C8 18 8 18 9 19 C9 16.03 9 13.06 9 10 C7.68 10 6.36 10 5 10 C5 10.66 5 11.32 5 12 C4.34 12 3.68 12 3 12 C2.34 10.68 1.68 9.36 1 8 C0.34 8 -0.32 8 -1 8 C-1 7.01 -1 6.02 -1 5 C-1.99 5 -2.98 5 -4 5 C-4 3.68 -4 2.36 -4 1 C-2 0 -2 0 0 0 Z " fill="#86C33E" transform="translate(200,132)"/>
<path d="M0 0 C0.33 0.99 0.66 1.98 1 3 C0.34 3.66 -0.32 4.32 -1 5 C29.195 5.495 29.195 5.495 60 6 C60 6.33 60 6.66 60 7 C38.55 7 17.1 7 -5 7 C-3.38262276 3.76524552 -2.52370777 2.29427979 0 0 Z " fill="#91A67E" transform="translate(214,73)"/>
<path d="M0 0 C1.68762851 1.6454378 3.3540349 3.31288577 5 5 C5 5.33 5 5.66 5 6 C3.35 6 1.7 6 0 6 C0 4.02 0 2.04 0 0 Z M-11 5 C-8.525 5.99 -8.525 5.99 -6 7 C-5.67 6.67 -5.34 6.34 -5 6 C-3.33382885 5.95936168 -1.66611905 5.957279 0 6 C-0.66 6.66 -1.32 7.32 -2 8 C-2.66 7.67 -3.32 7.34 -4 7 C-4.33 9.31 -4.66 11.62 -5 14 C-5.66 14 -6.32 14 -7 14 C-7.33 15.65 -7.66 17.3 -8 19 C-9.98 18.34 -11.96 17.68 -14 17 C-13.67 15.68 -13.34 14.36 -13 13 C-11.02 13.495 -11.02 13.495 -9 14 C-9.48484276 9.35413108 -9.48484276 9.35413108 -11 5 Z " fill="#6DBC1C" transform="translate(235,117)"/>
<path d="M0 0 C0.33 0 0.66 0 1 0 C1 6.6 1 13.2 1 20 C0.67 20 0.34 20 0 20 C-0.33 15.38 -0.66 10.76 -1 6 C-1.99 6 -2.98 6 -4 6 C-3.97679687 6.89203125 -3.95359375 7.7840625 -3.9296875 8.703125 C-3.91164062 9.87359375 -3.89359375 11.0440625 -3.875 12.25 C-3.85179687 13.41015625 -3.82859375 14.5703125 -3.8046875 15.765625 C-3.9896051 18.82786046 -4.39176977 20.44202751 -6 23 C-6.66 23 -7.32 23 -8 23 C-7.34 16.73 -6.68 10.46 -6 4 C-5.34 4 -4.68 4 -4 4 C-4 3.34 -4 2.68 -4 2 C-3.01 2 -2.02 2 -1 2 C-0.67 1.34 -0.34 0.68 0 0 Z " fill="#78BE2E" transform="translate(254,130)"/>
<path d="M0 0 C1.49249268 0.01571045 1.49249268 0.01571045 3.01513672 0.03173828 C4.6296875 0.04140625 4.6296875 0.04140625 6.27685547 0.05126953 C7.40478516 0.06802734 8.53271484 0.08478516 9.69482422 0.10205078 C11.39832031 0.11558594 11.39832031 0.11558594 13.13623047 0.12939453 C15.94763721 0.1530198 18.7586272 0.18596065 21.56982422 0.22705078 C21.56982422 4.61673534 19.4417732 5.99610817 16.56982422 9.22705078 C15.50732422 7.41455078 15.50732422 7.41455078 14.56982422 5.22705078 C14.89982422 4.23705078 15.22982422 3.24705078 15.56982422 2.22705078 C8.96982422 2.22705078 2.36982422 2.22705078 -4.43017578 2.22705078 C-2.43017578 0.22705078 -2.43017578 0.22705078 0 0 Z " fill="#87A76E" transform="translate(166.43017578125,66.77294921875)"/>
<path d="M0 0 C0.33 0 0.66 0 1 0 C1 2.31 1 4.62 1 7 C2.670625 6.9690625 2.670625 6.9690625 4.375 6.9375 C8 7 8 7 10 8 C10 8.99 10 9.98 10 11 C12.64 11 15.28 11 18 11 C15.50994323 13.49005677 14.62529268 13.29703766 11.1875 13.3125 C6.98571467 13.22761545 4.30541356 12.78894269 1 10 C-1.56687367 6.1496895 -0.83288724 4.41430237 0 0 Z " fill="#93CB59" transform="translate(79,152)"/>
<path d="M0 0 C0 3.33333333 0 6.66666667 0 10 C-3.75 11.125 -3.75 11.125 -6 10 C-6.25523437 10.59296875 -6.51046875 11.1859375 -6.7734375 11.796875 C-8.11816498 14.21224538 -9.49214367 15.51211706 -11.625 17.25 C-12.25664062 17.77078125 -12.88828125 18.2915625 -13.5390625 18.828125 C-14.02117187 19.21484375 -14.50328125 19.6015625 -15 20 C-15.66 19.67 -16.32 19.34 -17 19 C-16.443125 18.38253906 -15.88625 17.76507813 -15.3125 17.12890625 C-10.18569228 11.4391889 -5.08048256 5.73111656 0 0 Z " fill="#6E9450" transform="translate(244,40)"/>
<path d="M0 0 C1.65148544 0.0001133 1.65148544 0.0001133 3.33633423 0.00022888 C4.52906952 0.00539017 5.72180481 0.01055145 6.95068359 0.01586914 C8.16863617 0.01728409 9.38658875 0.01869904 10.64144897 0.02015686 C14.54403099 0.025769 18.44655632 0.0383236 22.34912109 0.05102539 C24.98974527 0.05603882 27.63037034 0.060602 30.27099609 0.06469727 C36.75539054 0.07574238 43.23975177 0.09249237 49.72412109 0.11352539 C49.72412109 0.44352539 49.72412109 0.77352539 49.72412109 1.11352539 C32.89412109 1.11352539 16.06412109 1.11352539 -1.27587891 1.11352539 C-1.60587891 2.10352539 -1.93587891 3.09352539 -2.27587891 4.11352539 C-2.60587891 3.45352539 -2.93587891 2.79352539 -3.27587891 2.11352539 C-4.26587891 2.11352539 -5.25587891 2.11352539 -6.27587891 2.11352539 C-6.27587891 2.77352539 -6.27587891 3.43352539 -6.27587891 4.11352539 C-6.93587891 4.11352539 -7.59587891 4.11352539 -8.27587891 4.11352539 C-7.94587891 3.12352539 -7.61587891 2.13352539 -7.27587891 1.11352539 C-4.70454432 -0.1721419 -2.8787079 -0.00657239 0 0 Z " fill="#7CB93E" transform="translate(104.27587890625,115.886474609375)"/>
<path d="M0 0 C1.32 0.33 2.64 0.66 4 1 C4.33 2.98 4.66 4.96 5 7 C0.545 8.485 0.545 8.485 -4 10 C-6 5.25 -6 5.25 -6 3 C-3 2 -3 2 0 3 C0 2.01 0 1.02 0 0 Z " fill="#6BBC15" transform="translate(231,115)"/>
<path d="M0 0 C0.33 0 0.66 0 1 0 C1.04898438 1.25296875 1.09796875 2.5059375 1.1484375 3.796875 C1.22348583 5.44793821 1.29903277 7.09897881 1.375 8.75 C1.4059375 9.575 1.436875 10.4 1.46875 11.25 C1.50742188 12.04921875 1.54609375 12.8484375 1.5859375 13.671875 C1.6173584 14.4050293 1.6487793 15.13818359 1.68115234 15.89355469 C1.89577403 18.05681563 1.89577403 18.05681563 3.02587891 20.02050781 C4 22 4 22 4 26 C4.66 26 5.32 26 6 26 C6.99 27.98 7.98 29.96 9 32 C8.34 32 7.68 32 7 32 C6.67 31.34 6.34 30.68 6 30 C3.47266765 29.34444881 3.47266765 29.34444881 1 29 C1.04125 27.88625 1.0825 26.7725 1.125 25.625 C1.41121859 21.95633975 1.41121859 21.95633975 -1 20 C-1.13525391 17.93701172 -1.13525391 17.93701172 -0.9765625 15.4296875 C-0.925 14.53378906 -0.8734375 13.63789063 -0.8203125 12.71484375 C-0.75585938 11.77769531 -0.69140625 10.84054688 -0.625 9.875 C-0.56828125 8.93011719 -0.5115625 7.98523438 -0.453125 7.01171875 C-0.31142903 4.67373519 -0.16000217 2.33679056 0 0 Z " fill="#7FC035" transform="translate(179,131)"/>
<path d="M0 0 C9.14618675 0.01046474 9.14618675 0.01046474 13.3515625 2.62890625 C15.45050327 6.28261796 15.65399642 8.41560227 15.0390625 12.56640625 C14.0490625 13.55640625 13.0590625 14.54640625 12.0390625 15.56640625 C11.7090625 11.60640625 11.3790625 7.64640625 11.0390625 3.56640625 C2.26482048 1.75712353 2.26482048 1.75712353 -5.9609375 4.56640625 C-4.25322161 1.52037401 -3.50258254 0.67001909 0 0 Z " fill="#99CA65" transform="translate(85.9609375,147.43359375)"/>
<path d="M0 0 C0.33 0.66 0.66 1.32 1 2 C12.88 2 24.76 2 37 2 C37 2.33 37 2.66 37 3 C35.93563721 3.01458252 34.87127441 3.02916504 33.7746582 3.04418945 C29.81403531 3.1022978 25.85397352 3.17952945 21.89379883 3.26245117 C20.18197762 3.29564169 18.47004852 3.32369189 16.75805664 3.34643555 C14.29266521 3.38009032 11.82825719 3.43240974 9.36328125 3.48828125 C8.60163162 3.49467117 7.83998199 3.5010611 7.05525208 3.50764465 C2.54343426 3.63161943 -0.35805514 4.29608416 -4 7 C-3.6875 4.625 -3.6875 4.625 -3 2 C-2.01 1.34 -1.02 0.68 0 0 Z " fill="#7ABE33" transform="translate(260,120)"/>
<path d="M0 0 C4.95 0 9.9 0 15 0 C13.68 0.33 12.36 0.66 11 1 C11.60990891 4.55780196 12.5783681 7.6828589 14 11 C12.68 10.67 11.36 10.34 10 10 C9.67 8.02 9.34 6.04 9 4 C8.01 4 7.02 4 6 4 C5.67 4.66 5.34 5.32 5 6 C4.731875 5.38125 4.46375 4.7625 4.1875 4.125 C3.04443152 1.7004767 3.04443152 1.7004767 0 0 Z " fill="#84C144" transform="translate(206,109)"/>
<path d="M0 0 C0.33 1.65 0.66 3.3 1 5 C-2.96 5 -6.92 5 -11 5 C-11 2 -11 2 -9.4375 0.25 C-6.02862887 -1.49813904 -3.66340563 -0.77495119 0 0 Z " fill="#6CBA15" transform="translate(198,74)"/>
<path d="M0 0 C0.33 0.99 0.66 1.98 1 3 C0.34 3 -0.32 3 -1 3 C-0.505 3.598125 -0.01 4.19625 0.5 4.8125 C2 7 2 7 2 10 C-1.47823115 11.15941038 -3.45895578 10.70820884 -7 10 C-6.8125 7.1875 -6.8125 7.1875 -6 4 C-3.5 2.1875 -3.5 2.1875 -1 1 C-0.67 0.67 -0.34 0.34 0 0 Z " fill="#66BC08" transform="translate(202,62)"/>
<path d="M0 0 C5 2 5 2 6 3 C6.30392154 5.88725465 6.41849029 7.42208484 4.6875 9.8125 C3 11 3 11 0 11 C0 7.37 0 3.74 0 0 Z " fill="#91C856" transform="translate(216,143)"/>
<path d="M0 0 C2 2 2 2 2.4375 4.8125 C2 8 2 8 0.3125 10.875 C-4.83773276 14.1789229 -10.04414061 13.39240655 -16 13 C-16.33 12.34 -16.66 11.68 -17 11 C-16.26394531 11.06960937 -15.52789062 11.13921875 -14.76953125 11.2109375 C-9.18131805 11.71944977 -9.18131805 11.71944977 -4.19140625 9.69921875 C-2.68270115 7.89470047 -2.68270115 7.89470047 -1 5 C-0.67 4.67 -0.34 4.34 0 4 C0 2.68 0 1.36 0 0 Z " fill="#8FC751" transform="translate(102,87)"/>
<path d="M0 0 C2.375 0.3125 2.375 0.3125 5 1 C7 4 7 4 6.8125 6.5625 C6 9 6 9 3 11 C2.67 9.35 2.34 7.7 2 6 C1.01 5.67 0.02 5.34 -1 5 C-0.67 3.35 -0.34 1.7 0 0 Z " fill="#668F45" transform="translate(283,55)"/>
<path d="M0 0 C1.4783226 2.95664519 1.06032783 5.74229737 1 9 C2.65 9.33 4.3 9.66 6 10 C5.01 10.495 5.01 10.495 4 11 C4 11.66 4 12.32 4 13 C7.63 13 11.26 13 15 13 C15 13.33 15 13.66 15 14 C4.17410072 14.62158273 4.17410072 14.62158273 -0.1875 12.3125 C-2.24976822 9.6813302 -3 8.34815045 -3 5 C-1.5625 2.1875 -1.5625 2.1875 0 0 Z " fill="#82C041" transform="translate(61,118)"/>
<path d="M0 0 C0.99 0.66 1.98 1.32 3 2 C3.97419067 6.87095335 1.49764545 10.01937757 -1 14 C-1.28875 13.38125 -1.5775 12.7625 -1.875 12.125 C-2.93720042 9.86674235 -2.93720042 9.86674235 -5 8 C-4.505 7.401875 -4.01 6.80375 -3.5 6.1875 C-1.71723582 4.02970006 -1.71723582 4.02970006 -2 1 C-1.34 0.67 -0.68 0.34 0 0 Z " fill="#6EBB1B" transform="translate(184,112)"/>
<path d="M0 0 C0.495 1.98 0.495 1.98 1 4 C-12.86 4 -26.72 4 -41 4 C-41 3.67 -41 3.34 -41 3 C-39.86457764 2.98018066 -38.72915527 2.96036133 -37.55932617 2.93994141 C-33.34913856 2.86390316 -29.13929737 2.77518314 -24.92944336 2.68261719 C-23.10692176 2.64432005 -21.28432437 2.60946845 -19.46166992 2.578125 C-16.84266059 2.53249021 -14.22417326 2.47449378 -11.60546875 2.4140625 C-10.38188911 2.39673569 -10.38188911 2.39673569 -9.1335907 2.37905884 C-5.26635496 2.27802726 -3.28840215 2.1922681 0 0 Z " fill="#A0CB7C" transform="translate(153,177)"/>
<path d="M0 0 C3.3 0.33 6.6 0.66 10 1 C9.67 2.65 9.34 4.3 9 6 C2.25 6.125 2.25 6.125 0 5 C0 3.35 0 1.7 0 0 Z " fill="#4D801D" transform="translate(270,146)"/>
<path d="M0 0 C0.268125 0.598125 0.53625 1.19625 0.8125 1.8125 C2.83614662 5.54027009 5.15900412 7.27817426 9 9 C6.69 8.67 4.38 8.34 2 8 C2 9.65 2 11.3 2 13 C2.66 13.33 3.32 13.66 4 14 C2.68 14.33 1.36 14.66 0 15 C-2.1519437 11.77208445 -2.20086443 10.71599191 -2 7 C-1.34 7 -0.68 7 0 7 C0 4.69 0 2.38 0 0 Z " fill="#618A44" transform="translate(268,138)"/>
<path d="M0 0 C2.49153377 3.73730065 2.41025455 6.67654816 2 11 C1.47406064 13.4120667 0.78264271 15.65207188 0 18 C-0.99 18 -1.98 18 -3 18 C-2.6919856 15.37440156 -2.37879818 12.74960194 -2.0625 10.125 C-1.97548828 9.37863281 -1.88847656 8.63226563 -1.79882812 7.86328125 C-1.11328125 2.2265625 -1.11328125 2.2265625 0 0 Z " fill="#F4F9F0" transform="translate(246,135)"/>
<path d="M0 0 C2.625 -0.4375 2.625 -0.4375 6 0 C8.38998754 2.05086769 10.3067937 4.34610927 12 7 C12 7.66 12 8.32 12 9 C11.01 9.33 10.02 9.66 9 10 C8.67 8.68 8.34 7.36 8 6 C6.02 6 4.04 6 2 6 C2 4.68 2 3.36 2 2 C1.34 1.34 0.68 0.68 0 0 Z " fill="#7EC136" transform="translate(285,85)"/>
<path d="M0 0 C0.33 0 0.66 0 1 0 C1.28843446 7.96399582 1.12533674 14.51258746 -4 21 C-3.6889315 18.93728361 -3.37608484 16.87483534 -3.0625 14.8125 C-2.88847656 13.66394531 -2.71445313 12.51539063 -2.53515625 11.33203125 C-1.90935404 7.43561309 -1.24859122 3.74577367 0 0 Z " fill="#82C037" transform="translate(244,135)"/>
<path d="M0 0 C1.67542976 0.28604898 3.34385343 0.61781233 5 1 C5.125 3.375 5.125 3.375 5 6 C4.34 6.66 3.68 7.32 3 8 C2.67 8.99 2.34 9.98 2 11 C-0.31309135 8.49415104 -0.97826344 7.27714111 -1.25 3.8125 C-1 1 -1 1 0 0 Z " fill="#80C13A" transform="translate(95,120)"/>
<path d="M0 0 C2 1.375 2 1.375 4 3 C4 3.66 4 4.32 4 5 C3.01 5 2.02 5 1 5 C1.33 6.65 1.66 8.3 2 10 C3.98 10.66 5.96 11.32 8 12 C7.67 12.66 7.34 13.32 7 14 C4.36 13.01 1.72 12.02 -1 11 C-1.02688151 9.35425434 -1.04634123 7.70838587 -1.0625 6.0625 C-1.07410156 5.14597656 -1.08570313 4.22945312 -1.09765625 3.28515625 C-1 1 -1 1 0 0 Z " fill="#9FCC6F" transform="translate(217,125)"/>
<path d="M0 0 C0.99 0.66 1.98 1.32 3 2 C2.40501518 5.36166422 1.25635842 7.21159678 -1 9.75 C-1.804375 10.67039062 -1.804375 10.67039062 -2.625 11.609375 C-3.07875 12.06828125 -3.5325 12.5271875 -4 13 C-4.33 13 -4.66 13 -5 13 C-5 11.35 -5 9.7 -5 8 C-4.34 8 -3.68 8 -3 8 C-2.67 6.35 -2.34 4.7 -2 3 C-1.34 3 -0.68 3 0 3 C0 2.01 0 1.02 0 0 Z " fill="#89C544" transform="translate(248,20)"/>
<path d="M0 0 C1.2684375 -0.00773437 1.2684375 -0.00773437 2.5625 -0.015625 C5.13478811 0.26468845 6.7803108 0.9551813 9 2.25 C8.67 2.91 8.34 3.57 8 4.25 C7.34 3.92 6.68 3.59 6 3.25 C4.12943209 3.0224985 2.25314042 2.84037189 0.375 2.6875 C-0.62789062 2.60371094 -1.63078125 2.51992187 -2.6640625 2.43359375 C-3.82035156 2.34271484 -3.82035156 2.34271484 -5 2.25 C-5 2.91 -5 3.57 -5 4.25 C-6.65 4.58 -8.3 4.91 -10 5.25 C-9 2.25 -9 2.25 -7.25 1.078125 C-4.69542633 0.13789997 -2.71739285 -0.01656947 0 0 Z " fill="#9CCC6A" transform="translate(93,82.75)"/>
<path d="M0 0 C0 0.99 0 1.98 0 3 C-6.96779403 4.32719886 -13.92988911 4.08825381 -21 4 C-21 3.67 -21 3.34 -21 3 C-19.69675781 2.81824219 -19.69675781 2.81824219 -18.3671875 2.6328125 C-17.21476563 2.46523437 -16.06234375 2.29765625 -14.875 2.125 C-13.16957031 1.88136719 -13.16957031 1.88136719 -11.4296875 1.6328125 C-7.9772774 1.08283813 -7.9772774 1.08283813 -4.6953125 -0.1328125 C-2 -1 -2 -1 0 0 Z " fill="#82C046" transform="translate(231,171)"/>
<path d="M0 0 C0.66 0.33 1.32 0.66 2 1 C2 3.64 2 6.28 2 9 C-1.875 8.125 -1.875 8.125 -3 7 C-3.25 4.5625 -3.25 4.5625 -3 2 C-2.01 1.34 -1.02 0.68 0 0 Z " fill="#9CCC6D" transform="translate(209,125)"/>
<path d="M0 0 C2 0.6875 2 0.6875 4 2.6875 C4 3.6775 4 4.6675 4 5.6875 C0 5.6875 0 5.6875 -3 4.6875 C-3.99 5.0175 -4.98 5.3475 -6 5.6875 C-6 5.0275 -6 4.3675 -6 3.6875 C-5.34 3.6875 -4.68 3.6875 -4 3.6875 C-4 2.6975 -4 1.7075 -4 0.6875 C-2 -0.3125 -2 -0.3125 0 0 Z " fill="#66BC0B" transform="translate(203,112.3125)"/>
<path d="M0 0 C1.32 0.66 2.64 1.32 4 2 C4 5.63 4 9.26 4 13 C1.37886292 13 -0.50935112 12.68707555 -3 12 C-2.67 10.68 -2.34 9.36 -2 8 C-0.02 8.495 -0.02 8.495 2 9 C1.51515724 4.35413108 1.51515724 4.35413108 0 0 Z " fill="#98CC62" transform="translate(224,122)"/>
<path d="M0 0 C1.98 0 3.96 0 6 0 C2.79239749 3.80635497 -0.40746109 7.54563567 -4 11 C-4.36625971 6.48279689 -4.36625971 6.48279689 -2.625 4.1875 C-1 3 -1 3 1 3 C0.67 2.01 0.34 1.02 0 0 Z " fill="#85C343" transform="translate(220,51)"/>
<path d="M0 0 C2.37948772 0.17625835 3.70225849 0.69719773 5.37890625 2.40234375 C6.62115486 3.90649092 7.81376056 5.45129851 9 7 C7.35 7.33 5.7 7.66 4 8 C4 7.34 4 6.68 4 6 C3.34 6 2.68 6 2 6 C2 5.01 2 4.02 2 3 C1.01 3 0.02 3 -1 3 C-0.67 2.01 -0.34 1.02 0 0 Z " fill="#709554" transform="translate(255,28)"/>
<path d="M0 0 C2.31 0.66 4.62 1.32 7 2 C6.34 5.63 5.68 9.26 5 13 C5.66 13.33 6.32 13.66 7 14 C5.35 14.66 3.7 15.32 2 16 C2.33 15.01 2.66 14.02 3 13 C3.4068872 8.75115862 3.69189114 5.18198069 1.5 1.4375 C1.005 0.963125 0.51 0.48875 0 0 Z " fill="#A0CC73" transform="translate(225,139)"/>
<path d="M0 0 C2.64 0 5.28 0 8 0 C7.67 0.66 7.34 1.32 7 2 C5.35 1.67 3.7 1.34 2 1 C2.53725895 4.37705625 3.11064623 7.696686 4 11 C1.03 10.505 1.03 10.505 -2 10 C-2 9.34 -2 8.68 -2 8 C-1.34 8 -0.68 8 0 8 C0 5.36 0 2.72 0 0 Z " fill="#9ACB6E" transform="translate(197,145)"/>
<path d="M0 0 C1.98 0.66 3.96 1.32 6 2 C6 1.34 6 0.68 6 0 C6.99 0.33 7.98 0.66 9 1 C6.69 3.31 4.38 5.62 2 8 C1.01 7.67 0.02 7.34 -1 7 C-0.01 6.67 0.98 6.34 2 6 C2 5.01 2 4.02 2 3 C1.01 2.67 0.02 2.34 -1 2 C-0.67 1.34 -0.34 0.68 0 0 Z " fill="#75BC2A" transform="translate(230,158)"/>
<path d="M0 0 C1.79068573 2.6860286 2.66055791 4.6626589 3.625 7.6875 C3.88539063 8.49574219 4.14578125 9.30398437 4.4140625 10.13671875 C4.60742188 10.75160156 4.80078125 11.36648437 5 12 C4.01 12.33 3.02 12.66 2 13 C2 12.34 2 11.68 2 11 C1.34 11 0.68 11 0 11 C-1.28571429 3.57142857 -1.28571429 3.57142857 0 0 Z " fill="#E4F0D9" transform="translate(183,146)"/>
<path d="M0 0 C0.33 0 0.66 0 1 0 C1 3.96 1 7.92 1 12 C-0.32 11.67 -1.64 11.34 -3 11 C-4.25 8.4375 -4.25 8.4375 -5 6 C-2 8 -2 8 -1 9 C-1.020625 7.88625 -1.04125 6.7725 -1.0625 5.625 C-1 2 -1 2 0 0 Z " fill="#A4CF7A" transform="translate(210,142)"/>
<path d="M0 0 C-4.66841777 3.11227851 -8.17597138 3.11824029 -13.75 3.0625 C-14.92046875 3.05347656 -16.0909375 3.04445312 -17.296875 3.03515625 C-18.18890625 3.02355469 -19.0809375 3.01195312 -20 3 C-20 2.67 -20 2.34 -20 2 C-19.39671875 1.95101562 -18.7934375 1.90203125 -18.171875 1.8515625 C-17.37265625 1.77679688 -16.5734375 1.70203125 -15.75 1.625 C-14.56664062 1.52058594 -14.56664062 1.52058594 -13.359375 1.4140625 C-10.97405225 1.11599421 -10.97405225 1.11599421 -8.9375 -0.0625 C-5.88366333 -1.5401629 -3.23383987 -0.62189228 0 0 Z " fill="#86C344" transform="translate(226,168)"/>
<path d="M0 0 C0.66 0 1.32 0 2 0 C2.1953125 2.05078125 2.390625 4.1015625 2.5859375 6.15234375 C2.72257813 6.76207031 2.85921875 7.37179688 3 8 C3.66 8.33 4.32 8.66 5 9 C4.67 9.99 4.34 10.98 4 12 C3.01 12 2.02 12 1 12 C1 11.34 1 10.68 1 10 C-0.32 10.33 -1.64 10.66 -3 11 C-2.505 10.29875 -2.01 9.5975 -1.5 8.875 C0.1936681 5.62880281 0.25162315 3.60659844 0 0 Z " fill="#80C03B" transform="translate(167,136)"/>
<path d="M0 0 C0.66 0 1.32 0 2 0 C2 0.66 2 1.32 2 2 C3.65 2.33 5.3 2.66 7 3 C7 3.66 7 4.32 7 5 C5.02 5.66 3.04 6.32 1 7 C0 6 0 6 -0.0625 2.9375 C-0.041875 1.968125 -0.02125 0.99875 0 0 Z " fill="#66BD04" transform="translate(61,121)"/>
<path d="M0 0 C4.95 1.98 4.95 1.98 10 4 C10 5.65 10 7.3 10 9 C9.34 8.67 8.68 8.34 8 8 C8 7.01 8 6.02 8 5 C6.35 5.33 4.7 5.66 3 6 C2.67 4.68 2.34 3.36 2 2 C1.34 2 0.68 2 0 2 C0 1.34 0 0.68 0 0 Z " fill="#8FC551" transform="translate(201,156)"/>
<path d="M0 0 C0 0.99 0 1.98 0 3 C0.3062434 4.33981486 0.63451555 5.67511887 1 7 C-1.31 7 -3.62 7 -6 7 C-5.8125 5.1875 -5.8125 5.1875 -5 3 C-2.4375 1.25 -2.4375 1.25 0 0 Z " fill="#6FBD18" transform="translate(195,116)"/>
<path d="M0 0 C0.33 1.32 0.66 2.64 1 4 C-0.96466413 5.06775224 -2.96855359 6.06553465 -5 7 C-5.66 6.67 -6.32 6.34 -7 6 C-6.67 5.01 -6.34 4.02 -6 3 C-5.01 3 -4.02 3 -3 3 C-3 2.34 -3 1.68 -3 1 C-2.01 0.67 -1.02 0.34 0 0 Z " fill="#8CC54E" transform="translate(210,115)"/>
<path d="M0 0 C1.98 0 3.96 0 6 0 C6 1.32 6 2.64 6 4 C3.69 4 1.38 4 -1 4 C-0.67 2.68 -0.34 1.36 0 0 Z " fill="#65BD07" transform="translate(192,74)"/>
<path d="M0 0 C0.99 0.33 1.98 0.66 3 1 C3 1.66 3 2.32 3 3 C2.34 3 1.68 3 1 3 C1.37125 3.5775 1.7425 4.155 2.125 4.75 C2.41375 5.4925 2.7025 6.235 3 7 C2.34 8.32 1.68 9.64 1 11 C-0.32 8.36 -1.64 5.72 -3 3 C-2.01 3 -1.02 3 0 3 C0 2.01 0 1.02 0 0 Z " fill="#71BC20" transform="translate(244,115)"/>
<path d="M0 0 C2.29160319 -0.02692484 4.58329546 -0.04636124 6.875 -0.0625 C8.15117188 -0.07410156 9.42734375 -0.08570312 10.7421875 -0.09765625 C14 0 14 0 16 1 C16 1.66 16 2.32 16 3 C10.72 2.34 5.44 1.68 0 1 C0 0.67 0 0.34 0 0 Z " fill="#8CC052" transform="translate(63,116)"/>
<path d="M0 0 C1.32 0.66 2.64 1.32 4 2 C0.92000054 5.67230705 -1.2482602 6.56802365 -6 7 C-6 6.34 -6 5.68 -6 5 C-4.35 5 -2.7 5 -1 5 C-1.33 4.01 -1.66 3.02 -2 2 C-1.34 1.34 -0.68 0.68 0 0 Z " fill="#87C343" transform="translate(291,189)"/>
<path d="M0 0 C1.26237731 2.52475462 1.09856404 4.31200466 1.0625 7.125 C1.05347656 8.03507812 1.04445313 8.94515625 1.03515625 9.8828125 C1.02355469 10.58148438 1.01195312 11.28015625 1 12 C-2 10 -2 10 -2.875 7.6875 C-3.0338568 4.27207886 -1.95448191 2.73627468 0 0 Z " fill="#91C557" transform="translate(61,118)"/>
<path d="M0 0 C0.66 0.33 1.32 0.66 2 1 C2.25 8.625 2.25 8.625 0 12 C-0.66 12 -1.32 12 -2 12 C-2.33 10.35 -2.66 8.7 -3 7 C-2.67 7.66 -2.34 8.32 -2 9 C-1.34 9 -0.68 9 0 9 C0 6.03 0 3.06 0 0 Z " fill="#92C754" transform="translate(89,183)"/>
<path d="M0 0 C0.33 1.32 0.66 2.64 1 4 C0.01 3.67 -0.98 3.34 -2 3 C-4.56634861 2.77281504 -7.11678107 2.58391816 -9.6875 2.4375 C-10.38939453 2.39431641 -11.09128906 2.35113281 -11.81445312 2.30664062 C-13.54275206 2.2008264 -15.2713511 2.09993419 -17 2 C-17 1.67 -17 1.34 -17 1 C-14.72926348 0.83201949 -12.45840707 0.66565887 -10.1875 0.5 C-8.29064453 0.36078125 -8.29064453 0.36078125 -6.35546875 0.21875 C-4.24021483 0.08085219 -2.11974408 0 0 0 Z " fill="#7BBF2C" transform="translate(152,162)"/>
<path d="M0 0 C0 1.32 0 2.64 0 4 C-0.99 4.33 -1.98 4.66 -3 5 C-4.20882096 7.00016466 -4.20882096 7.00016466 -5 9 C-5 6.36 -5 3.72 -5 1 C-3 0 -3 0 0 0 Z " fill="#76BF2B" transform="translate(87,87)"/>
<path d="M0 0 C2.10823096 3.42587531 2.08614656 6.0372584 2 10 C2.33 10.66 2.66 11.32 3 12 C2.01 11.67 1.02 11.34 0 11 C-1.62651522 7.74696956 -1.11453156 4.60774398 -1 1 C-0.67 0.67 -0.34 0.34 0 0 Z " fill="#98CA66" transform="translate(108,183)"/>
<path d="M0 0 C0.66 0 1.32 0 2 0 C2 0.99 2 1.98 2 3 C6.29 3 10.58 3 15 3 C15 3.33 15 3.66 15 4 C9.72 4 4.44 4 -1 4 C-0.67 2.68 -0.34 1.36 0 0 Z " fill="#A4CD81" transform="translate(185,76)"/>
<path d="M0 0 C0.33 0 0.66 0 1 0 C1.33 3.3 1.66 6.6 2 10 C1.01 9.67 0.02 9.34 -1 9 C-1.625 5.625 -1.625 5.625 -2 2 C-1.34 1.34 -0.68 0.68 0 0 Z " fill="#E6F1DA" transform="translate(246,128)"/>
<path d="M0 0 C3.14958831 3.42346555 3.56179109 6.44262737 4 11 C3.54625 10.34 3.0925 9.68 2.625 9 C2.08875 8.34 1.5525 7.68 1 7 C0.34 7 -0.32 7 -1 7 C-0.67 4.69 -0.34 2.38 0 0 Z " fill="#82C13C" transform="translate(240,123)"/>
<path d="M0 0 C-0.33 1.65 -0.66 3.3 -1 5 C-1.99 5 -2.98 5 -4 5 C-4.66 4.01 -5.32 3.02 -6 2 C-3 0 -3 0 0 0 Z " fill="#69BB06" transform="translate(231,119)"/>
<path d="M0 0 C1.65 0 3.3 0 5 0 C4.34 1.65 3.68 3.3 3 5 C2.01 5 1.02 5 0 5 C-0.33 4.34 -0.66 3.68 -1 3 C-0.67 2.01 -0.34 1.02 0 0 Z " fill="#68BC06" transform="translate(217,110)"/>
<path d="M0 0 C0 1.65 0 3.3 0 5 C-2 4 -4 3 -6 2 C-6 1.34 -6 0.68 -6 0 C-3 -1 -3 -1 0 0 Z " fill="#77BC29" transform="translate(198,161)"/>
<path d="M0 0 C0.66 0.66 1.32 1.32 2 2 C1.34 2 0.68 2 0 2 C0 1.34 0 0.68 0 0 Z M-4 2 C-2.68 2.33 -1.36 2.66 0 3 C-0.66 4.32 -1.32 5.64 -2 7 C-3.32 7 -4.64 7 -6 7 C-5.34 5.35 -4.68 3.7 -4 2 Z " fill="#67BC0B" transform="translate(246,21)"/>
<path d="M0 0 C0.99 0.33 1.98 0.66 3 1 C3.33 3.64 3.66 6.28 4 9 C3.01 9.66 2.02 10.32 1 11 C1.020625 9.9275 1.04125 8.855 1.0625 7.75 C1.0142016 4.85209576 0.86844115 2.71387859 0 0 Z " fill="#8FC653" transform="translate(153,166)"/>
<path d="M0 0 C3.71888239 0.50712033 6.73454239 1.11608215 10 3 C4.58461538 4.23076923 4.58461538 4.23076923 1.625 3.0625 C1.08875 2.711875 0.5525 2.36125 0 2 C0 1.34 0 0.68 0 0 Z " fill="#6ABB05" transform="translate(281,85)"/>
<path d="M0 0 C0.33 0.99 0.66 1.98 1 3 C0.01 4.485 0.01 4.485 -1 6 C-0.34 6.66 0.32 7.32 1 8 C-0.98 8 -2.96 8 -5 8 C-3.62845496 5.04590299 -2.01136276 2.55991624 0 0 Z " fill="#7EA066" transform="translate(287,69)"/>
<path d="M0 0 C0.33 0.99 0.66 1.98 1 3 C0.01 3.99 -0.98 4.98 -2 6 C-3.32 5.34 -4.64 4.68 -6 4 C-4.02 2.68 -2.04 1.36 0 0 Z " fill="#7BBE33" transform="translate(237,165)"/>
<path d="M0 0 C1.32 0 2.64 0 4 0 C3.67 1.32 3.34 2.64 3 4 C3.99 4.33 4.98 4.66 6 5 C4.02 5 2.04 5 0 5 C0 3.35 0 1.7 0 0 Z " fill="#6DBB1A" transform="translate(92,158)"/>
<path d="M0 0 C5.75 -0.125 5.75 -0.125 8 1 C7.67 1.99 7.34 2.98 7 4 C7 3.34 7 2.68 7 2 C5.68 2 4.36 2 3 2 C3 2.66 3 3.32 3 4 C2.34 4 1.68 4 1 4 C0.67 2.68 0.34 1.36 0 0 Z " fill="#7EC134" transform="translate(202,140)"/>
<path d="M0 0 C1.68762851 1.6454378 3.3540349 3.31288577 5 5 C5 5.33 5 5.66 5 6 C3.35 6 1.7 6 0 6 C0 4.02 0 2.04 0 0 Z " fill="#7DBF2D" transform="translate(235,117)"/>
<path d="M0 0 C0.78375 0.04125 1.5675 0.0825 2.375 0.125 C-0.24014317 2.24538635 -2.82137616 4.25591744 -5.625 6.125 C-4.86443086 2.32215429 -4.27658992 0.20364714 0 0 Z " fill="#78BC24" transform="translate(196.625,107.875)"/>
<path d="M0 0 C3.3 0.33 6.6 0.66 10 1 C9.67 1.99 9.34 2.98 9 4 C6.03 3.01 3.06 2.02 0 1 C0 0.67 0 0.34 0 0 Z " fill="#7ABD2B" transform="translate(223,106)"/>
<path d="M0 0 C0.99 0.33 1.98 0.66 3 1 C3.6875 3.0625 3.6875 3.0625 4 5 C1.03 4.505 1.03 4.505 -2 4 C-2 3.34 -2 2.68 -2 2 C-1.34 2 -0.68 2 0 2 C0 1.34 0 0.68 0 0 Z " fill="#84C43C" transform="translate(197,151)"/>
<path d="M0 0 C0.5534764 2.07553648 1 3.84365964 1 6 C-0.32 6 -1.64 6 -3 6 C-3 4.68 -3 3.36 -3 2 C-2.01 1.34 -1.02 0.68 0 0 Z " fill="#6DB915" transform="translate(83,150)"/>
<path d="M0 0 C0.99 0.99 1.98 1.98 3 3 C2.34 4.32 1.68 5.64 1 7 C0.34 7 -0.32 7 -1 7 C-0.67 4.69 -0.34 2.38 0 0 Z " fill="#83C03E" transform="translate(247,146)"/>
<path d="M0 0 C2.31 0.66 4.62 1.32 7 2 C6.34 3.32 5.68 4.64 5 6 C5 5.34 5 4.68 5 4 C4.360625 3.71125 3.72125 3.4225 3.0625 3.125 C1 2 1 2 0 0 Z " fill="#8CC54D" transform="translate(225,139)"/>
<path d="M0 0 C0.66 0.33 1.32 0.66 2 1 C2.29296875 7.0546875 2.29296875 7.0546875 2 9 C1.01 9.66 0.02 10.32 -1 11 C-1.33 10.01 -1.66 9.02 -2 8 C-1.01 8 -0.02 8 1 8 C0.67 5.36 0.34 2.72 0 0 Z " fill="#92C75A" transform="translate(79,119)"/>
<path d="M0 0 C0.99 0 1.98 0 3 0 C2.67 1.65 2.34 3.3 2 5 C1.01 4.67 0.02 4.34 -1 4 C-0.67 2.68 -0.34 1.36 0 0 Z " fill="#7CC02C" transform="translate(199,74)"/>
<path d="M0 0 C0.99 0.33 1.98 0.66 3 1 C1.35 2.98 -0.3 4.96 -2 7 C-2.33 5.68 -2.66 4.36 -3 3 C-2.01 3 -1.02 3 0 3 C0 2.01 0 1.02 0 0 Z " fill="#87C344" transform="translate(209,65)"/>
<path d="M0 0 C4.875 2.75 4.875 2.75 6 5 C4.35 5 2.7 5 1 5 C0.67 3.35 0.34 1.7 0 0 Z " fill="#7D9D62" transform="translate(276,46)"/>
</svg>
